<?xml version="1.0" encoding="utf-8"?>
<!-- Generator: Adobe Illustrator 23.0.5, SVG Export Plug-In . SVG Version: 6.00 Build 0)  -->
<svg version="1.1" id="Layer_1" xmlns="http://www.w3.org/2000/svg" xmlns:xlink="http://www.w3.org/1999/xlink" x="0px" y="0px"
	 viewBox="0 0 841.9 595.3" style="enable-background:new 0 0 841.9 595.3;" xml:space="preserve">
<style type="text/css">
	.st0{fill:none;stroke:url(#SVGID_1_);stroke-width:2;stroke-dasharray:12.0014,12.0014;}
	.st1{fill:none;stroke:url(#SVGID_2_);stroke-width:2;stroke-dasharray:12.2887,12.2887;}
	.st2{fill:url(#SVGID_3_);}
	.st3{fill:url(#SVGID_4_);}
	.st4{fill:#808184;}
	.st5{fill:none;stroke:#EC1C24;stroke-miterlimit:10;}
	.st6{fill:#DBAB27;}
	.st7{fill:#11AD4B;}
	.st8{fill:#FFFFFF;}
	.st9{fill:#F5C6E2;}
	.st10{fill:#A464D1;}
	.st11{opacity:0.44;fill:#231F20;enable-background:new    ;}
	.st12{fill:#B0E8CD;}
	.st13{fill:#76CCA3;}
	.st14{fill:#2BB573;}
	.st15{fill:#AFDCF0;}
	.st16{fill:#82C4E0;}
	.st17{fill:#27A9E0;}
	.st18{fill:#D9A9C5;}
	.st19{fill:#EB5CB1;}
	.st20{fill:#EB008B;}
	.st21{fill:#F5E0CC;}
	.st22{fill:#C2AB93;}
	.st23{fill:#C3996C;}
	.st24{opacity:0.43;enable-background:new    ;}
	.st25{fill:#BB7F38;}
	.st26{fill:#FAAF40;}
	.st27{fill:#BBBDBF;}
	.st28{fill:#696A6B;}
	.st29{fill:none;stroke:#27A9E0;stroke-miterlimit:10;}
	.st30{fill:#B0891F;}
	.st31{fill:#00A551;}
	.st32{fill:#006838;}
	.st33{fill:none;stroke:#231F20;stroke-width:2;stroke-linecap:round;stroke-miterlimit:10;}
	.st34{fill-rule:evenodd;clip-rule:evenodd;fill:#FFFFFF;}
	.st35{fill:#808080;stroke:#291919;stroke-width:0.2;}
	.st36{fill-rule:evenodd;clip-rule:evenodd;fill:url(#SVGID_5_);}
	
		.st37{opacity:0.7211;fill:none;stroke:#B1ADAD;stroke-width:1.6296;stroke-linecap:round;stroke-linejoin:round;stroke-miterlimit:1;enable-background:new    ;}
	
		.st38{opacity:0.7211;fill:none;stroke:#BC890A;stroke-width:1.6296;stroke-linecap:round;stroke-linejoin:round;stroke-miterlimit:1;enable-background:new    ;}
	.st39{opacity:0.2947;fill:none;stroke:#470606;stroke-width:0.4;enable-background:new    ;}
	.st40{fill:#FDED19;}
	.st41{fill:#929497;}
	.st42{fill:#58595B;}
	.st43{fill:#231F20;}
	.st44{fill:#6D6E71;}
	.st45{fill:#404142;}
	.st46{fill:url(#SVGID_6_);}
	.st47{fill:url(#SVGID_7_);}
	.st48{fill:url(#SVGID_8_);}
	.st49{fill:url(#SVGID_9_);}
	.st50{fill:url(#SVGID_10_);}
	.st51{fill:url(#SVGID_11_);}
	.st52{fill:url(#SVGID_12_);}
	.st53{fill:url(#SVGID_13_);}
	.st54{fill:url(#SVGID_14_);}
	.st55{fill:#0E8736;}
	.st56{fill:none;}
	.st57{fill:none;stroke:url(#SVGID_15_);stroke-width:2;}
	.st58{fill:none;stroke:url(#SVGID_16_);stroke-width:2;stroke-dasharray:13.9409,13.9409;}
	.st59{fill:none;stroke:url(#SVGID_17_);stroke-width:2;}
	.st60{fill:none;stroke:url(#SVGID_18_);stroke-width:2;stroke-dasharray:12.4351,12.4351;}
	.st61{fill:none;stroke:url(#SVGID_19_);stroke-width:2;}
	.st62{fill:none;stroke:url(#SVGID_20_);stroke-width:2;stroke-dasharray:13.9409,13.9409;}
	.st63{fill:none;stroke:url(#SVGID_21_);stroke-width:2;}
	.st64{fill:none;stroke:url(#SVGID_22_);stroke-width:2;stroke-dasharray:12.4351,12.4351;}
	.st65{fill:none;stroke:url(#SVGID_23_);stroke-width:2;stroke-dasharray:12.0486,12.0486;}
	.st66{fill:none;stroke:url(#SVGID_24_);stroke-width:2;stroke-dasharray:11.9122,11.9122;}
	.st67{fill:none;stroke:url(#SVGID_25_);stroke-width:2;stroke-dasharray:12.0931,12.0931;}
	.st68{fill:none;stroke:url(#SVGID_26_);stroke-width:2;}
	.st69{fill:none;stroke:url(#SVGID_27_);stroke-width:2;stroke-dasharray:11.4232,11.4232;}
	.st70{fill:none;stroke:url(#SVGID_28_);stroke-width:2;}
	.st71{fill:none;stroke:#231F20;stroke-width:2;}
	.st72{fill:none;stroke:url(#SVGID_29_);stroke-width:2;}
	.st73{fill:none;stroke:url(#SVGID_30_);stroke-width:2;stroke-dasharray:12.5141,12.5141;}
	.st74{fill:none;stroke:url(#SVGID_31_);stroke-width:2;}
	.st75{fill:none;stroke:url(#SVGID_32_);stroke-width:2;}
	.st76{fill:none;stroke:url(#SVGID_33_);stroke-width:2;stroke-dasharray:12.397,12.397;}
	.st77{fill:none;stroke:url(#SVGID_34_);stroke-width:2;}
	.st78{fill:none;stroke:url(#SVGID_35_);stroke-width:2;}
	.st79{fill:none;stroke:url(#SVGID_36_);stroke-width:2;stroke-dasharray:12.1159,12.1159;}
	.st80{fill:none;stroke:url(#SVGID_37_);stroke-width:2;}
	.st81{fill:none;stroke:url(#SVGID_38_);stroke-width:2;}
	.st82{fill:none;stroke:url(#SVGID_39_);stroke-width:2;stroke-dasharray:11.2748,11.2748;}
	.st83{fill:none;stroke:url(#SVGID_40_);stroke-width:2;}
	.st84{fill-rule:evenodd;clip-rule:evenodd;fill:url(#SVGID_41_);stroke:#FEED05;stroke-miterlimit:10;}
	.st85{fill:url(#SVGID_42_);stroke:#FEED05;stroke-miterlimit:10;}
	.st86{opacity:0.43;}
	.st87{fill:url(#SVGID_43_);}
	.st88{fill:url(#SVGID_44_);}
	.st89{fill:url(#SVGID_45_);}
	.st90{fill:url(#SVGID_46_);}
</style>
<g>
	
		<linearGradient id="SVGID_1_" gradientUnits="userSpaceOnUse" x1="225.42" y1="306.1651" x2="719.7556" y2="306.1651" gradientTransform="matrix(1 0 0 -1 0 595.2756)">
		<stop  offset="0.1844" style="stop-color:#DBAB27"/>
		<stop  offset="0.6955" style="stop-color:#FCE012"/>
	</linearGradient>
	<path class="st0" d="M552.5,411.5c-105.6-44.2-211.1-88.4-316.7-132.6c-11.6-4.9-12.7-20.9-1.8-27.3c48-28,96-56,144.1-84
		c3.6-2.1,7.9-2.6,11.9-1.5c105.9,30.6,211.8,61.2,317.7,91.8c11.7,3.4,14.9,18.3,5.7,26.2c-48.4,41.6-96.7,83.2-145.1,124.8
		C564,412.8,557.8,413.7,552.5,411.5z"/>
</g>
<g>
	
		<linearGradient id="SVGID_2_" gradientUnits="userSpaceOnUse" x1="20.1676" y1="208.1275" x2="247.1349" y2="208.1275" gradientTransform="matrix(1 0 0 -1 0 595.2756)">
		<stop  offset="0.1844" style="stop-color:#DBAB27"/>
		<stop  offset="0.6955" style="stop-color:#FCE012"/>
	</linearGradient>
	<path class="st1" d="M239.8,392.5L75,405.5c-0.6,0-1.1,0-1.6-0.2l-49-14.5c-4.8-1.4-4.1-8.4,0.9-8.8c49.4-4.4,98.8-8.8,148.2-13.2
		c0.4,0,0.7,0,1.1,0c21.9,3.3,43.8,6.7,65.7,10C248.4,380.1,247.9,391.9,239.8,392.5z"/>
</g>
<linearGradient id="SVGID_3_" gradientUnits="userSpaceOnUse" x1="244.7838" y1="279.0922" x2="551.26" y2="279.0922" gradientTransform="matrix(1 0 0 -1 0 595.2756)">
	<stop  offset="0.5978" style="stop-color:#11AD4B"/>
	<stop  offset="0.9414" style="stop-color:#F8C230"/>
</linearGradient>
<path class="st2" d="M551.3,379.5c-6.3,0.5-12.7-0.3-18.8-2.5L251.3,275.7c-3.3-1.2-5.3-3.7-6.1-6.5h0c0,0,0,0,0,0
	c-0.5-1.6-0.5-3.4-0.1-5c-0.1-3.8-0.2-7.6-0.3-11.5h0c0.1,2.5,1.1,4.9,2.9,6.7c1,0.9,2.1,1.7,3.6,2.2l281.2,101.3
	c5.9,2.1,12,3,18.1,2.5C550.8,370.1,551,374.8,551.3,379.5z"/>
<linearGradient id="SVGID_4_" gradientUnits="userSpaceOnUse" x1="244.7916" y1="330.7982" x2="700.38" y2="330.7982" gradientTransform="matrix(1 0 0 -1 0 595.2756)">
	<stop  offset="0.1844" style="stop-color:#11AD4B"/>
	<stop  offset="0.6955" style="stop-color:#F8C230"/>
</linearGradient>
<path class="st3" d="M700.4,256.3L700.4,256.3c0,0.9,0,1.8,0,2.7c-0.3,1.9-1.4,3.8-3.2,5.2l-0.6,0.5l-122.2,91.9
	c-7,5.3-15.3,8.3-23.8,8.8c-6,0.4-12.2-0.4-18.1-2.5L251.3,261.6c-1.4-0.5-2.6-1.3-3.6-2.2c-1.9-1.8-2.9-4.2-2.9-6.7
	c-0.1-3.4,1.5-6.9,5-8.9l135.1-76.4c7.3-4.1,15.9-5.1,23.8-2.7l285.9,85C697.9,250.7,699.9,253.4,700.4,256.3z"/>
<path class="st4" d="M666.8,255.5L666.8,255.5c0,0.8,0,1.5,0,2.3c-0.3,1.6-1.1,3.1-2.5,4.2c0.4-0.7,0.6-1.4,0.7-2.1
	c0-0.8,0-1.5,0-2.3v0c-0.4-2.5-2.1-4.8-4.9-5.6l-241.2-72c-6.8-2-14-1.2-20.1,2.3l-27,15.4l30.5-17.5c6.1-3.5,13.3-4.3,20-2.3
	l239.6,72C664.7,250.7,666.4,253,666.8,255.5z"/>
<path d="M639.9,249.9L639.9,249.9c0,0.8,0,1.5,0,2.3c-0.1,0.7-0.3,1.4-0.7,2.1c-0.4,0.9-1,1.6-1.8,2.3l-0.5,0.4l-95.6,80.6
	c-5.5,4.7-12,7.4-18.6,8c-4.7,0.5-9.5-0.2-14-1.9l-213.4-82.3c-1.1-0.4-1.9-1-2.6-1.8c-1.4-1.5-2-3.5-2-5.6c0-2.9,1.4-5.9,4.1-7.6
	l80.4-50.5l24.9-15.6c5.6-3.5,12.2-4.5,18.2-2.6l217.2,66.8C638,245.1,639.5,247.4,639.9,249.9z"/>
<path class="st5" d="M700.4,259c0-0.9,0-1.8,0-2.7C700.5,257.2,700.5,258.1,700.4,259z"/>
<path class="st5" d="M700.5,257.9"/>
<path class="st6" d="M700.3,273.6c-0.4,1.8-1.4,3.5-3.1,4.7l-122.9,92.4c-6.8,5.1-14.8,8.1-23.1,8.8c-0.2-4.7-0.5-9.4-0.7-14.1
	c8.5-0.6,16.8-3.6,23.8-8.8l122.2-91.9l0.6-0.5c1.8-1.4,2.8-3.2,3.2-5.2c0,3.7,0,7.3-0.1,11C700.5,271.2,700.5,272.4,700.3,273.6z"
	/>
<ellipse class="st7" cx="363.7" cy="251" rx="33" ry="17.5"/>
<g>
	<ellipse class="st8" cx="349.5" cy="245.5" rx="8.3" ry="5.3"/>
	<path class="st8" d="M386.1,247.9l-22.2,13.7c-4.6-1.6-7.7-4.3-7.7-7.3c0-4.9,8-8.8,17.8-8.8C378.7,245.5,382.9,246.4,386.1,247.9z
		"/>
</g>
<g>
	<polygon class="st9" points="700.5,248.3 595.8,334 581.6,345.6 470.1,296.4 598.8,207.6 614.9,214 	"/>
	<polygon class="st8" points="653.8,260 592.9,306.9 530.9,280.3 592,235.1 	"/>
	<polygon class="st10" points="616.6,218 504.7,302.1 487.3,296.6 602.7,213.4 	"/>
	<polygon class="st10" points="689.2,248.9 578.5,336.2 563.3,329.8 673.2,243.8 	"/>
</g>
<polygon class="st11" points="718.1,256.1 613.4,341.8 604.1,337.7 589.2,331.1 529.3,304.7 519,300.2 629.2,224.1 632.5,221.8 "/>
<g>
	<polygon class="st12" points="738.9,243.1 620,340.4 508.6,291.3 637.3,202.4 	"/>
	<polygon class="st8" points="691.3,256.3 631.6,302.2 570.2,275.2 630,230.9 	"/>
	<polygon class="st13" points="655,212.5 541.5,297.8 525.7,291.1 641.1,207.8 	"/>
	<polygon class="st14" points="570.6,275.7 541,298.2 525.7,291.1 556.2,269.2 	"/>
	<polygon class="st14" points="655,212.5 630.3,231.2 615.7,226.1 641.2,207.7 	"/>
	<polygon class="st13" points="725.6,245.9 613.7,333.3 597.8,326.9 711.7,241.5 	"/>
	<polygon class="st14" points="645.5,308.3 613.7,333.3 597.8,326.9 630.4,302.4 	"/>
	<polygon class="st14" points="725.6,245.9 705,262.2 691.4,256.5 712.8,240.6 	"/>
</g>
<polygon class="st11" points="734.9,246.8 630.2,332.5 620.9,328.4 606,321.8 546.1,295.4 535.8,290.9 646,214.8 649.3,212.5 "/>
<g>
	<polygon class="st15" points="770.2,240.8 651.3,338 539.9,288.9 668.5,200 	"/>
	<polygon class="st8" points="721.2,253.3 661.5,299.2 600.1,272.2 659.9,227.9 	"/>
	<polygon class="st16" points="684.9,209.4 571.4,294.8 555.6,288.1 671,204.8 	"/>
	<polygon class="st17" points="600.5,272.7 570.9,295.2 555.6,288.1 586.1,266.2 	"/>
	<polygon class="st17" points="684.9,209.4 660.2,228.2 645.6,223.1 671.1,204.7 	"/>
	<polygon class="st16" points="755.5,242.9 643.6,330.3 627.7,323.9 741.5,238.5 	"/>
	<polygon class="st17" points="675.4,305.2 643.6,330.3 627.7,323.9 660.3,299.4 	"/>
	<polygon class="st17" points="755.5,242.9 734.9,259.2 721.3,253.5 742.6,237.6 	"/>
</g>
<polygon class="st11" points="761.5,247.7 656.8,333.4 647.5,329.3 632.6,322.7 572.7,296.3 562.4,291.8 672.5,215.7 675.9,213.4 
	"/>
<g>
	<polygon class="st18" points="790.5,238.3 671.7,335.6 560.2,286.4 688.9,197.6 	"/>
	<polygon class="st8" points="740.9,251 681.3,297 619.9,269.9 679.7,225.7 	"/>
	<polygon class="st19" points="704.7,207.2 591.2,292.6 575.4,285.8 690.8,202.6 	"/>
	<polygon class="st20" points="620.3,270.4 590.7,293 575.4,285.8 605.9,263.9 	"/>
	<polygon class="st20" points="704.7,207.2 680,226 665.4,220.8 690.9,202.5 	"/>
	<polygon class="st19" points="775.3,240.6 663.4,328 647.5,321.6 761.3,236.2 	"/>
	<polygon class="st20" points="695.2,303 663.4,328 647.5,321.6 680.1,297.2 	"/>
	<polygon class="st20" points="775.3,240.6 754.7,256.9 741.1,251.2 762.4,235.3 	"/>
</g>
<polygon class="st11" points="751.1,224.2 646.4,309.8 637.1,305.7 622.2,299.1 562.3,272.7 552,268.2 662.1,192.1 665.5,189.8 "/>
<g>
	<polygon class="st21" points="777.1,211.2 658.2,308.5 546.8,259.4 675.5,170.5 	"/>
	<polygon class="st8" points="730.5,222.9 670.8,268.9 609.4,241.9 669.2,197.6 	"/>
	<polygon class="st22" points="694.2,179.1 580.7,264.5 565,257.8 680.3,174.5 	"/>
	<polygon class="st23" points="609.8,242.3 580.2,264.9 565,257.8 595.4,235.8 	"/>
	<polygon class="st23" points="694.2,179.1 669.5,197.9 654.9,192.8 680.4,174.4 	"/>
	<polygon class="st22" points="764.8,212.6 652.9,300 637,293.6 750.9,208.2 	"/>
	<polygon class="st23" points="684.7,274.9 652.9,300 637,293.6 669.6,269.1 	"/>
	<polygon class="st23" points="764.8,212.6 744.2,228.9 730.6,223.2 752,207.3 	"/>
</g>
<ellipse class="st24" cx="522.7" cy="316.2" rx="31.1" ry="11.7"/>
<g>
	<path class="st25" d="M554.7,307.5c0,6.7-13.4,11.5-31.1,11.5c-17.7,0-30.6-4-30.6-10.6c0-2-1.4-7.2,0.9-8.8
		c5.4-3.9,17.3-4.7,29.7-4.7c12.9,0,24.1,0,29.2,4.1C554.7,300.5,554.7,305.7,554.7,307.5z"/>
	<ellipse class="st26" cx="523.5" cy="303" rx="31.1" ry="11.7"/>
</g>
<ellipse class="st27" cx="523.6" cy="302.4" rx="27.3" ry="10.3"/>
<g>
	<path class="st25" d="M551.5,299.3c0,6.7-13.4,11.5-31.1,11.5c-17.7,0-30.6-4-30.6-10.6c0-2-1.4-7.2,0.9-8.8
		c5.4-3.9,17.3-4.7,29.7-4.7c12.9,0,24.1,0,29.2,4.1C551.5,292.3,551.5,297.5,551.5,299.3z"/>
	<ellipse class="st26" cx="520.4" cy="294.8" rx="31.1" ry="11.7"/>
	<g>
		<path class="st25" d="M528.2,295.1l-1.3,0v0c0,0.5,0,1.1-0.2,1.7c-0.2,0.9-0.5,1.3-0.8,1.3c-0.5,0-0.7-0.2-0.7-0.7
			c0-0.2,0-0.6,0.1-1.1c0.1-0.5,0.1-0.9,0.1-1.2l-3.2,0.1c-0.1,1.1-0.4,2.1-1,2.7c-0.6,0.6-1.3,0.9-2.2,1c-1,0-1.9-0.3-2.6-1
			c-0.6-0.6-1-1.4-1.3-2.5l-2.1,0.1c-0.2,0-0.4,0-0.5-0.2s-0.2-0.3-0.2-0.5c0-0.5,0.2-0.7,0.7-0.7l2-0.1c0-2.5,0.6-3.8,1.8-3.9
			c0.5,0,0.7,0.2,0.7,0.6c0,0.2-0.1,0.5-0.3,0.7c-0.3,0.3-0.5,0.6-0.5,0.8c-0.2,0.4-0.3,1-0.3,1.7l4.4-0.2v-0.1
			c0-0.8,0.2-1.5,0.5-2.1c0.4-0.7,1-1.1,1.8-1.2c0.7,0,1.4,0.3,2,0.9c0.6,0.6,1.1,1.3,1.3,2.2l1.5,0c0.2,0,0.4,0.1,0.5,0.2
			s0.2,0.3,0.2,0.5C528.8,294.8,528.6,295.1,528.2,295.1z M520.7,295.4l-4.1,0.1c0.2,0.5,0.5,1,0.9,1.4c0.4,0.4,0.9,0.6,1.4,0.6
			C519.8,297.4,520.3,296.7,520.7,295.4z M522.3,293.9l2.8-0.1c-0.4-1-1-1.5-1.9-1.5C522.7,292.3,522.4,292.9,522.3,293.9z"/>
	</g>
</g>
<g>
	<path class="st25" d="M551.9,290.7c0,6.7-13.4,11.5-31.1,11.5c-17.7,0-30.6-4-30.6-10.6c0-2-1.4-7.2,0.9-8.8
		c5.4-3.9,17.3-4.7,29.7-4.7c12.9,0,24.1,0,29.2,4.1C551.9,283.7,551.9,288.8,551.9,290.7z"/>
	<ellipse class="st26" cx="520.8" cy="286.2" rx="31.1" ry="11.7"/>
	<g>
		<path class="st25" d="M528.5,286.5l-1.3,0v0c0,0.5,0,1.1-0.2,1.7c-0.2,0.9-0.5,1.3-0.8,1.3c-0.5,0-0.7-0.2-0.7-0.7
			c0-0.2,0-0.6,0.1-1.1c0.1-0.5,0.1-0.9,0.1-1.2l-3.2,0.1c-0.1,1.1-0.4,2.1-1,2.7c-0.6,0.6-1.3,0.9-2.2,1c-1,0-1.9-0.3-2.6-1
			c-0.6-0.6-1-1.4-1.3-2.5l-2.1,0.1c-0.2,0-0.4,0-0.5-0.2s-0.2-0.3-0.2-0.5c0-0.5,0.2-0.7,0.7-0.7l2-0.1c0-2.5,0.6-3.8,1.8-3.9
			c0.5,0,0.7,0.2,0.7,0.6c0,0.2-0.1,0.5-0.3,0.7c-0.3,0.3-0.5,0.6-0.5,0.8c-0.2,0.4-0.3,1-0.3,1.7l4.4-0.2v-0.1
			c0-0.8,0.2-1.5,0.5-2.1c0.4-0.7,1-1.1,1.8-1.2c0.7,0,1.4,0.3,2,0.9c0.6,0.6,1.1,1.3,1.3,2.2l1.5,0c0.2,0,0.4,0.1,0.5,0.2
			s0.2,0.3,0.2,0.5C529.2,286.2,529,286.5,528.5,286.5z M521,286.7l-4.1,0.1c0.2,0.5,0.5,1,0.9,1.4c0.4,0.4,0.9,0.6,1.4,0.6
			C520.1,288.8,520.8,288.1,521,286.7z M522.7,285.3l2.8-0.1c-0.4-1-1-1.5-1.9-1.5C523.1,283.7,522.8,284.2,522.7,285.3z"/>
	</g>
</g>
<ellipse class="st27" cx="520.4" cy="285.3" rx="27.3" ry="10.3"/>
<g>
	<path class="st28" d="M552.7,283.4c0,5.8-11.6,10-27,10c-15.4,0-26.6-3.4-26.6-9.2c0-1.7-1.2-6.2,0.8-7.7c4.6-3.4,15-4,25.8-4
		c11.2,0,20.9,0,25.3,3.6C552.7,277.4,552.7,281.9,552.7,283.4z"/>
	<ellipse class="st27" cx="525.7" cy="279.4" rx="27" ry="10.1"/>
</g>
<g>
	<path class="st25" d="M551.1,276.2c0,6.7-13.4,11.5-31.1,11.5c-17.7,0-30.6-4-30.6-10.6c0-2-1.4-7.2,0.9-8.8
		c5.4-3.9,17.3-4.7,29.7-4.7c12.9,0,24.1,0,29.2,4.1C551.2,269.2,551.1,274.4,551.1,276.2z"/>
	<ellipse class="st26" cx="520" cy="271.7" rx="31.1" ry="11.7"/>
	<ellipse class="st27" cx="519.7" cy="271.6" rx="27.3" ry="10.3"/>
</g>
<g>
	<path class="st6" d="M531.1,488.8c0,1.4-0.2,2.8-0.6,4.2c-0.8,2.8-2.4,5.4-4.7,7.9c-8.4,9-25.8,15.1-46,15.1
		c-20.2,0-37.6-6.2-46-15.1c-2.1-2.2-3.6-4.6-4.5-7.1c-0.4-1.1-0.6-2.2-0.8-3.3v0c-0.1-0.5-0.1-1-0.1-1.6c0-15,23-27.2,51.3-27.2
		c27.1,0,49.3,11.1,51.1,25.3C531.1,487.5,531.1,488.1,531.1,488.8z"/>
	<path class="st8" d="M523.7,488.8c0,1.1-0.2,2.3-0.5,3.4c-0.7,2.3-2.1,4.4-4,6.4c-7.2,7.3-22.1,12.2-39.3,12.2
		c-17.3,0-32.2-5-39.3-12.2c-1.8-1.8-3.1-3.7-3.8-5.7c-0.3-0.9-0.5-1.8-0.6-2.7v0c0-0.4-0.1-0.8-0.1-1.3c0-12.1,19.6-22,43.9-22
		c23.2,0,42.2,9,43.8,20.4C523.7,487.8,523.7,488.3,523.7,488.8z"/>
	<path class="st29" d="M531,488.9c0,0.6,0,1.1-0.1,1.7l0-3.6C531,487.6,531,488.2,531,488.9z"/>
	<path class="st29" d="M531.3,498c0,0.1,0,0.2,0,0.2C531.3,498.2,531.3,498.1,531.3,498z"/>
	<path class="st30" d="M531.3,497.8c0,0.5-0.1,0.6-0.2,1.4c0,0.2,0,0.4,0,0.7c0,0.1,0,0.2,0,0.4c0,0.1,0,0.3,0,0.4
		c-0.1,0.9-1.9,8.5-15.2,15.5c-17.4,9.1-35.7,8.4-35.7,8.4c-28.3,0-51.4-12-51.4-26.8c0-0.5-0.1-1.3,0-1.8c-0.1-1.9,0-3.6-0.1-5.5
		c0.1,1.1,0.4,2.2,0.8,3.3c0.9,2.5,2.4,4.8,4.5,7c8.4,8.8,25.8,14.9,46,14.9c20.2,0,37.6-6.1,46-14.9c2.3-2.4,3.9-5,4.7-7.7
		c0,0,0,0,0,0c0.2-0.8,0.4-1.6,0.5-2.5l0,4.3C531.2,495.8,531.3,496.8,531.3,497.8z"/>
	<path class="st31" d="M548.7,492.4c0,0.4,0,0.8-0.2,1.1c-0.2,0.8-0.6,1.5-1.2,2.1c-2.1,2.5-6.6,4.1-11.7,4.1
		c-5.1,0-9.6-1.7-11.7-4.1c-0.5-0.6-0.9-1.3-1.1-1.9c-0.1-0.3-0.2-0.6-0.2-0.9v0c0-0.1,0-0.3,0-0.4c0-4.1,5.8-7.4,13-7.4
		c6.9,0,12.5,3,13,6.9C548.7,492.1,548.7,492.2,548.7,492.4z"/>
	<path class="st32" d="M548.8,494.9c0,0.1,0,0.1,0,0.4c0,0,0,0.1,0,0.2c0,0,0,0.1,0,0.1c0,0,0,0.1,0,0.1c0,0.2-0.5,2.3-3.9,4.2
		c-4.4,2.5-9.1,2.3-9.1,2.3c-7.2,0-13.1-3.3-13.1-7.3c0-0.1,0-0.4,0-0.5c0-0.5,0-1,0-1.5c0,0.3,0.1,0.6,0.2,0.9
		c0.2,0.7,0.6,1.3,1.1,1.9c2.1,2.4,6.6,4.1,11.7,4.1c5.1,0,9.6-1.7,11.7-4.1c0.6-0.7,1-1.4,1.2-2.1v0c0.1-0.2,0.1-0.5,0.1-0.7l0,1.2
		C548.7,494.3,548.8,494.6,548.8,494.9z"/>
	<line class="st33" x1="441.8" y1="482.5" x2="448.6" y2="483.5"/>
	<line class="st33" x1="512.2" y1="491.7" x2="519" y2="492.7"/>
	<line class="st33" x1="451" y1="502.4" x2="457" y2="499.3"/>
	<line class="st33" x1="473.5" y1="507.7" x2="474.1" y2="500.9"/>
	<line class="st33" x1="482.6" y1="475.7" x2="484.2" y2="469"/>
	<line class="st33" x1="501.7" y1="479.3" x2="507.1" y2="475.1"/>
	<line class="st33" x1="462.5" y1="470.9" x2="466.5" y2="476.5"/>
	<line class="st33" x1="492" y1="500.7" x2="496" y2="506.3"/>
	<path class="st29" d="M479.7,486.7l-0.1,0.3c-0.1-0.1-0.3-0.2-0.4-0.4L479.7,486.7z"/>
	<path d="M483.8,485.5c0,1-0.8,1.8-1.9,2l-6.3,11.6l4.1-12.1l0.1-0.3l-0.5-0.1l-23.9-3.5l24.1,1c0.5-0.4,1.1-0.6,1.8-0.6
		C482.7,483.5,483.8,484.4,483.8,485.5z"/>
	<g transform="translate(0 -552.36)">
		<path color-rendering="auto" shape-rendering="auto" image-rendering="auto" class="st34" d="M534.7,1038.5l0,7.2h-2.8v2.8l5.6,0
			l0-10L534.7,1038.5z"/>
	</g>
</g>
<g>
	<path class="st35" d="M594.4,131.8c17.9-8.7,32.8-4.5,47.7-0.4c0.9,3.2,0.5,6.3-0.6,9.5c0,0-9.5-4.4-13.4-2.2
		c-5.6,3.2-5.4,18.4-5.4,18.4c-3.5,0.5-7.6,1-11.5-0.7c0,0,1.2-13-3.5-16.4c-3.4-2.5-13,0.7-13,0.7
		C594.1,137.7,593.2,134.8,594.4,131.8L594.4,131.8z"/>
	
		<linearGradient id="SVGID_5_" gradientUnits="userSpaceOnUse" x1="589.24" y1="460.1306" x2="647.89" y2="460.1306" gradientTransform="matrix(1 0 0 -1 0 595.2756)">
		<stop  offset="0.2542" style="stop-color:#F8C230"/>
		<stop  offset="0.6816" style="stop-color:#FFF200"/>
	</linearGradient>
	<path class="st36" d="M618.5,105.8c-16.2,0-29.3,13.1-29.3,29.3s13.1,29.3,29.3,29.3s29.3-13.1,29.3-29.3S634.7,105.8,618.5,105.8z
		 M618.1,110.7c13.5,0,24.4,11,24.4,24.5s-10.9,24.4-24.4,24.4s-24.5-10.9-24.5-24.4S604.6,110.7,618.1,110.7z"/>
	<path class="st6" d="M642.1,132c-14.9-4.3-29.8-8.7-47.7,0.4c-1.3,3.1-0.3,6.3,0.4,9.4c0,0,9.6-3.4,13-0.8
		c4.6,3.6,3.5,17.2,3.5,17.2c3.9,1.9,8,1.3,11.5,0.8c0,0-0.3-15.9,5.4-19.3c3.9-2.3,13.4,2.3,13.4,2.3
		C642.6,138.6,643,135.3,642.1,132z M617.5,141c-2.9,0-5.3-2.1-5.3-4.6s2.3-4.6,5.3-4.6c2.9,0,5.3,2.1,5.3,4.6S620.4,141,617.5,141z
		"/>
	<path class="st37" d="M645.7,134.3c0,14.7-11.9,26.6-26.6,26.6s-26.6-11.9-26.6-26.6c0-14.7,11.9-26.6,26.6-26.6
		S645.7,119.6,645.7,134.3z"/>
	<path class="st38" d="M594.4,136.2c16.6-5.6,31.8-3.1,46.9-0.2"/>
	<path class="st39" d="M604.1,129.2"/>
	<path class="st39" d="M598.5,140.5"/>
	<path class="st39" d="M632.2,129.5"/>
	<path class="st39" d="M637.7,140.8"/>
</g>
<path class="st40" d="M441.3,279.3c-0.3,0.2-0.1,0.6,0.4,0.9c0.5,0.3,1.2,0.4,1.5,0.2c0.3-0.2,0.1-0.6-0.4-0.9
	C442.3,279.1,441.6,279.1,441.3,279.3z M443.9,280.8c-0.1,0.1-0.1,0.3,0.2,0.4s0.5,0.2,0.6,0.1s0.1-0.3-0.2-0.4
	C444.4,280.7,444.1,280.7,443.9,280.8z M445.8,281.1l3.4,1.9c0.4-0.5,0.5-1.1,0.4-1.7l-3.7-0.4C445.9,280.9,445.8,281,445.8,281.1
	L445.8,281.1z M445.2,279.4l3.7,0.4c-0.5-0.6-1.1-1.3-2-1.9l-1.9,1.3C445.1,279.3,445.2,279.3,445.2,279.4L445.2,279.4z
	 M442.6,277.9c0.1,0,0.2,0.1,0.4,0.1l1.9-1.3c-1-0.5-2.1-0.8-3.1-1L442.6,277.9z M438.7,278.7c0-0.1,0-0.1,0-0.2l-3-1.7
	c-0.4,0.5-0.5,1-0.5,1.6L438.7,278.7z M432.7,274.3c-3.2,2.1-1.8,6.4,3.5,9.6c5.6,3.5,13.3,4.5,16.8,2c3.5-2.4,1.2-7.1-4.8-10.2
	C442.7,272.8,435.9,272.2,432.7,274.3L432.7,274.3z M449.8,284.1c-2.5,1.7-7.9,1-11.9-1.4c-3.8-2.3-4.9-5.4-2.6-6.9
	c2.3-1.5,7.2-1.1,11.2,1.1C450.7,279.1,452.2,282.4,449.8,284.1L449.8,284.1z M440.5,278.8c0.1-0.1,0.1-0.3-0.1-0.4
	s-0.5-0.1-0.6-0.1c-0.1,0.1-0.1,0.3,0.1,0.4S440.4,278.9,440.5,278.8z M439.4,275.6c-0.9,0-1.8,0.1-2.5,0.4l3,1.7c0.1,0,0.2,0,0.3,0
	L439.4,275.6z M439.3,280.2l-3.5-0.4c0.4,0.6,1,1.3,1.8,1.9l1.9-1.3C439.4,280.3,439.3,280.2,439.3,280.2z M445.2,284.3
	c1,0,1.9-0.1,2.7-0.4l-3.3-1.9c-0.1,0-0.2,0-0.3,0L445.2,284.3z M441.5,281.6l-1.9,1.3c1,0.5,2.1,0.9,3.2,1.1l-0.9-2.3
	C441.8,281.7,441.6,281.6,441.5,281.6z M441.2,280.5c-0.2-0.1-0.5-0.2-0.6-0.1s-0.1,0.3,0.1,0.4c0.2,0.1,0.5,0.2,0.6,0.1
	C441.5,280.8,441.4,280.6,441.2,280.5z M443.2,279.1c0.2,0.1,0.5,0.1,0.6,0.1s0.1-0.3-0.2-0.4s-0.5-0.1-0.6-0.1
	C443,278.8,443,279,443.2,279.1z M485.3,249.3c-0.3,0.2,0,0.5,0.6,0.7c0.6,0.2,1.3,0.2,1.6,0c0.3-0.2,0-0.5-0.6-0.7
	C486.3,249.2,485.6,249.2,485.3,249.3z M482.5,249.1c0-0.1,0-0.1,0-0.1l-3.6-1.1c-0.3,0.4-0.4,0.8-0.2,1.3L482.5,249.1z
	 M488.5,250.3c-0.1,0.1,0,0.2,0.3,0.3c0.3,0.1,0.6,0.1,0.7,0s0-0.2-0.3-0.3C488.9,250.3,488.6,250.3,488.5,250.3z M490.5,250.4
	l4,1.3c0.3-0.4,0.3-0.9,0-1.4l-4,0C490.5,250.3,490.5,250.4,490.5,250.4L490.5,250.4z M489.2,249c0.1,0.1,0.2,0.1,0.3,0.1l4,0
	c-0.6-0.5-1.5-0.9-2.5-1.3L489.2,249L489.2,249z M482.2,239.6c-2.9-0.2-5.4,0.8-7.7,1.4c-13.8,4.7-15.5,7.2-17.5,8.1
	c-0.5,0.1-1.3,0.1-1.8,0.2c-1.2,0.1-2.4,0.3-3.6,0.4c-1.9,0.2-10.2,1.4-12,1.8c-4,1-9.1,3-17.8,9.9c-0.6,0.2-1.3,0.1-1.8,0.3
	c-0.6,0.2-0.6,0.6-0.8,0.9c0.5,0.3,0.8,0.5,1.1,0.7c-0.8,1.9-1.9,3.7-2.7,5.7c-0.3,0.8-0.7,1.7-1.1,2.6c-0.2,0.5-0.3,1.2-0.6,1.8
	c-0.4,0.6-1.2,1-1.7,1.6c-0.9,1.2-2.3,2.1-3.8,3.1c0.2,0.4,0.3,0.9,0.7,1.2c0.4-0.1,0.7,0,1.2,0.4c0.5,1,1.9,1.8,3.5,2.9
	c-0.3,1.2,2.2,3.2,4.7,4.5l0.5,0.5c0.7,0.4,1.5,0.8,2.3,1.3c0.8,0,1.9,0.1,2.7,0.4c0.4,0.1,1,0.4,1.4,0.3c2.9,0.1,10-4.3,10-4.3
	l0.4-0.2c-0.6-0.3-1.2-0.6-1.7-1c-5.5-3.4-6.9-7.8-3.6-10c3.3-2.2,10.4-1.6,16.1,1.5c1,0.5,2.6,1.5,3.4,2.1l33.2-22.9
	c-1.5-0.3-2.9-0.7-4.3-1.2c-6.6-2.3-9.1-5.6-6.2-7.6c3-2,10.6-2,17.4,0c1.2,0.4,2.4,0.8,3.4,1.2l0.3-0.2c0,0,2.1-1.8,2.1-2.3
	s-1.7-1.3-1.7-1.3l-3.9-0.9C492.2,242.4,485.3,239.8,482.2,239.6L482.2,239.6z M426.4,268.7c-3.8,0.2-4.9-1.7-4.9-1.6
	c0,0,0,0.1,0,0.1c0-0.1,0-0.1,0-0.1c-0.1-0.7-0.1-3.9,9.2-10c2.8,1,6.6,2.5,9.7,3.6C436.3,263.2,428.6,268.3,426.4,268.7
	L426.4,268.7z M452.3,252.9c-0.8,0.5-9.1,6-9.1,6s-7.1-1.8-10.6-2.9c0.1,0,1.8-1,1.8-1s3.7-1.8,6.8-2.6c2.4-0.6,9.1-1.2,9.3-1.2
	C449.5,251.9,450.6,252.6,452.3,252.9L452.3,252.9z M475,246.1c-2.9,1.9-0.4,5.1,6,7.3c6.7,2.3,15,2.5,18.1,0.4
	c3.1-2.2-0.4-5.6-7.4-7.7C485.2,244.1,477.9,244.2,475,246.1z M495.4,252.5c-2.2,1.5-8,1.4-12.8-0.2c-4.6-1.5-6.5-3.9-4.4-5.3
	c2.1-1.4,7.4-1.4,12.1,0C495.2,248.6,497.5,251,495.4,252.5L495.4,252.5z M483.4,250.2l-3.8,0c0.6,0.5,1.4,0.9,2.3,1.3l1.7-1.2
	C483.6,250.3,483.5,250.3,483.4,250.2z M485.5,250.3c-0.3-0.1-0.6-0.1-0.7,0c-0.1,0.1,0,0.2,0.3,0.3c0.3,0.1,0.6,0.1,0.7,0
	C485.9,250.5,485.8,250.4,485.5,250.3z M484.4,249.1c0.1-0.1,0-0.2-0.3-0.3c-0.3-0.1-0.5-0.1-0.7,0c-0.1,0.1,0,0.2,0.3,0.3
	C484,249.1,484.3,249.1,484.4,249.1z M482.5,246.6c-1,0.1-1.8,0.3-2.5,0.5l3.6,1.1c0.1,0,0.2,0,0.3-0.1L482.5,246.6z M487.3,249.1
	c0.3,0.1,0.6,0.1,0.7,0s0-0.2-0.3-0.3c-0.3-0.1-0.6-0.1-0.7,0C487,248.9,487.1,249,487.3,249.1z M490.6,253c1.1-0.1,2-0.2,2.7-0.5
	l-4-1.3c-0.1,0-0.2,0-0.3,0.1L490.6,253z M486.1,251.2l-1.7,1.2c1.2,0.3,2.4,0.5,3.6,0.6l-1.5-1.7
	C486.4,251.2,486.2,251.2,486.1,251.2z M486.7,248.3l1.7-1.1c-1.2-0.3-2.4-0.4-3.5-0.5l1.4,1.6C486.5,248.2,486.6,248.2,486.7,248.3
	L486.7,248.3z"/>
<ellipse class="st7" cx="483.6" cy="237.6" rx="17.4" ry="9.2"/>
<path class="st41" d="M341.8,302.2L341.8,302.2c0,0.2-0.1,0.5-0.1,0.7c-0.4,1-1.4,1.7-2.4,1.7c-0.3,0-0.6,0-0.9-0.2l-59.7-22.2
	c-1.3-0.5-2-2-1.5-3.3c0.1-0.2,0.2-0.4,0.3-0.6c0,0,0,0,0,0c0.5-0.7,1.3-1.1,2.1-1.1c0.3,0,0.6,0,0.9,0.2l59.7,22.2
	C341.3,300,341.9,301.1,341.8,302.2z"/>
<path class="st42" d="M342.1,301.6c-0.1,0.2-0.2,0.4-0.3,0.6c0.1-1.1-0.6-2.2-1.7-2.6l-59.7-22.2c-0.3-0.1-0.6-0.2-0.9-0.2
	c-0.8,0-1.6,0.4-2.1,1.1c0-0.2,0.1-0.5,0.1-0.7c0.4-1,1.4-1.7,2.4-1.7c0.3,0,0.6,0,0.9,0.2l59.7,22.2
	C342,298.8,342.6,300.3,342.1,301.6z"/>
<path class="st43" d="M598.2,348.3c0,2.1-1.3,3.9-2.9,3.9c-1.5,0-2.8-1.5-2.9-3.5c0.5,1.3,1.5,2.2,2.6,2.2c1.6,0,2.9-1.8,2.9-3.9
	c0-0.1,0-0.3,0-0.4C598,347.1,598.2,347.7,598.2,348.3z"/>
<path class="st44" d="M597.9,347c0,2.1-1.3,3.9-2.9,3.9c-1.1,0-2.1-0.9-2.6-2.2c0-0.1,0-0.3,0-0.4c0-2.1,1.3-3.9,2.9-3.9
	c1.1,0,2.1,0.9,2.6,2.2C597.9,346.8,597.9,346.9,597.9,347z"/>
<path class="st45" d="M597.9,347c0,2.1-1.3,3.9-2.9,3.9c-1.1,0-2.1-0.9-2.6-2.2c0-0.1,0-0.3,0-0.4c0-2.1,1.3-3.9,2.9-3.9
	c1.1,0,2.1,0.9,2.6,2.2C597.9,346.8,597.9,346.9,597.9,347z"/>
<path class="st42" d="M367.3,193l-46.6,25.9c-1.3,0.8-4.1,0.9-6.3,0.3l0,0c-2.2-0.6-2.9-1.8-1.5-2.6l48.2-27.1
	c1.5-0.9,4.1-0.7,5.8,0.3l0,0C368.6,190.7,368.7,192.2,367.3,193z"/>
<path class="st7" d="M431.5,199.7l-46.6,25.9c-1.3,0.8-4.1,0.9-6.3,0.3l0,0c-2.2-0.6-2.9-1.8-1.5-2.6l48.2-27.1
	c1.5-0.9,4.1-0.7,5.8,0.3l0,0C432.8,197.4,432.9,198.9,431.5,199.7z"/>
<path class="st7" d="M443.9,202L397.4,228c-1.3,0.8-4.1,0.9-6.3,0.3l0,0c-2.2-0.6-2.9-1.8-1.5-2.6l48.2-27.1
	c1.5-0.9,4.1-0.7,5.8,0.3l0,0C445.3,199.8,445.4,201.2,443.9,202z"/>
<path class="st7" d="M456.3,204.1L409.7,230c-1.3,0.8-4.1,0.9-6.3,0.3l0,0c-2.2-0.6-2.9-1.8-1.5-2.6l48.2-27.1
	c1.5-0.9,4.1-0.7,5.8,0.3l0,0C457.6,201.8,457.7,203.3,456.3,204.1z"/>
<path class="st8" d="M487.2,229.9c-0.9,0.8-2.3,1.9-4.2,3.4c-1-0.5-2.4-1.3-4.3-2.4c-0.9,0.7-2.3,1.9-4.2,3.4
	c0.9,0.5,2.3,1.4,4.2,2.5c-1,0.8-2.4,1.9-4.3,3.5c0.5,0.3,1,0.6,1.8,1.1c0.7,0.4,1.6,1,2.6,1.6c1-0.8,2.4-2,4.4-3.6
	c1,0.6,2.6,1.5,4.8,2.8c1-0.8,2.5-2.1,4.4-3.7c-1.1-0.6-2.7-1.5-4.8-2.6c1-0.8,2.4-1.9,4.2-3.5C490.8,231.8,489.2,231,487.2,229.9z"
	/>
<g>
	<path class="st29" d="M165,323.8"/>
	
		<linearGradient id="SVGID_6_" gradientUnits="userSpaceOnUse" x1="219.081" y1="210.691" x2="222.4303" y2="250.4101" gradientTransform="matrix(1 0 0 -1 0 595.2756)">
		<stop  offset="3.790000e-02" style="stop-color:#F8C230"/>
		<stop  offset="0.6459" style="stop-color:#FFF200"/>
	</linearGradient>
	<polygon class="st46" points="202.2,389.8 242.1,388.3 242,309.2 202.2,308.8 	"/>
	
		<linearGradient id="SVGID_7_" gradientUnits="userSpaceOnUse" x1="191.7981" y1="253.2334" x2="171.4206" y2="272.0399" gradientTransform="matrix(1 0 0 -1 0 595.2756)">
		<stop  offset="0.2542" style="stop-color:#F8C230"/>
		<stop  offset="0.9348" style="stop-color:#FFF200"/>
	</linearGradient>
	<polygon class="st47" points="174.5,369.9 202.2,389.8 202.2,307.9 174.5,296.9 	"/>
	<path class="st29" d="M96,340.8"/>
	
		<linearGradient id="SVGID_8_" gradientUnits="userSpaceOnUse" x1="152.3981" y1="268.0944" x2="129.0701" y2="272.1507" gradientTransform="matrix(1 0 0 -1 0 595.2756)">
		<stop  offset="0.1704" style="stop-color:#11AD4B"/>
		<stop  offset="0.7123" style="stop-color:#39B44A"/>
	</linearGradient>
	<path class="st48" d="M171.1,329c-8.8-2.7-17.6-5.5-26.4-8.2c-12.9-0.1-25.8-0.2-38.7-0.3c8.8,2.7,17.6,5.5,26.4,8.2
		C145.3,328.8,158.2,328.9,171.1,329z"/>
	
		<linearGradient id="SVGID_9_" gradientUnits="userSpaceOnUse" x1="150.514" y1="218.3658" x2="154.3106" y2="256.084" gradientTransform="matrix(1 0 0 -1 0 595.2756)">
		<stop  offset="7.540000e-02" style="stop-color:#11AD4B"/>
		<stop  offset="0.6676" style="stop-color:#109E45"/>
	</linearGradient>
	<polygon class="st49" points="133.3,391.1 171.2,389.9 171.2,329.1 133.4,328.8 	"/>
	
		<linearGradient id="SVGID_10_" gradientUnits="userSpaceOnUse" x1="119.35" y1="255.692" x2="120.2023" y2="217.1353" gradientTransform="matrix(1 0 0 -1 0 595.2756)">
		<stop  offset="7.540000e-02" style="stop-color:#11AD4B"/>
		<stop  offset="0.6676" style="stop-color:#0C7533"/>
	</linearGradient>
	<polygon class="st50" points="106,376.1 133.3,391.3 133.2,328.8 106,320.5 	"/>
	<path class="st29" d="M30.8,356.1"/>
	
		<linearGradient id="SVGID_11_" gradientUnits="userSpaceOnUse" x1="38.09" y1="252.4956" x2="105.25" y2="252.4956" gradientTransform="matrix(1 0 0 -1 0 595.2756)">
		<stop  offset="0.1764" style="stop-color:#87C535"/>
		<stop  offset="0.2484" style="stop-color:#A7C57E"/>
	</linearGradient>
	<path class="st51" d="M105.3,347.9c-9.1-3.5-18.1-6.9-27.1-10.3c-13.3,0.1-26.7,0.1-40,0.2c9,3.5,18.1,6.9,27.1,10.3
		C78.6,348,91.9,347.9,105.3,347.9z"/>
	
		<linearGradient id="SVGID_12_" gradientUnits="userSpaceOnUse" x1="79.5296" y1="200.5835" x2="88.4359" y2="239.4294" gradientTransform="matrix(1 0 0 -1 0 595.2756)">
		<stop  offset="0.1764" style="stop-color:#648C2C"/>
		<stop  offset="0.6459" style="stop-color:#87C535"/>
	</linearGradient>
	<polygon class="st52" points="65.4,392 105.2,391.2 105.2,348 65.4,347.8 	"/>
	
		<linearGradient id="SVGID_13_" gradientUnits="userSpaceOnUse" x1="51.7694" y1="231.6219" x2="49.2358" y2="258.9807" gradientTransform="matrix(1 0 0 -1 0 595.2756)">
		<stop  offset="0.1764" style="stop-color:#648C2C"/>
		<stop  offset="0.6459" style="stop-color:#87C535"/>
	</linearGradient>
	<polygon class="st53" points="38.1,381.3 65.6,392.2 65.6,347.6 38.1,337.7 	"/>
	
		<linearGradient id="SVGID_14_" gradientUnits="userSpaceOnUse" x1="174.48" y1="292.3506" x2="241.66" y2="292.3506" gradientTransform="matrix(1 0 0 -1 0 595.2756)">
		<stop  offset="0" style="stop-color:#F8C230"/>
		<stop  offset="0.3446" style="stop-color:#FFF200"/>
	</linearGradient>
	<path class="st54" d="M241.7,309c-9.1-3.9-18.1-7.8-27.2-11.7c-13.3-0.1-26.6-0.3-40-0.4c9.1,3.9,18.1,7.8,27.2,11.7
		C215,308.7,228.3,308.9,241.7,309z"/>
</g>
<g>
	<path class="st55" d="M183.8,126.6c0-0.3,0.3-0.8,0.6-0.9l6.4-3.2c0.3-0.2,0.5-0.6,0.5-0.9l-1.5-6.8c-0.1-0.3-0.5-0.6-0.8-0.7
		l-7.2-0.5c-0.4,0-0.8-0.3-0.9-0.6l-1-1.8c-0.2-0.3-0.2-0.8,0-1.1l3.6-6.2c0.2-0.3,0.1-0.8-0.1-1l-4.9-5c-0.3-0.2-0.7-0.3-1-0.1
		l-6.3,3.5c-0.3,0.2-0.8,0.2-1.1,0l-1.7-1c-0.3-0.2-0.6-0.6-0.6-0.9l-0.3-7.2c0-0.3-0.3-0.7-0.6-0.8l-6.8-1.6
		c-0.3-0.1-0.8,0.1-0.9,0.4l-3.4,6.3c-0.2,0.3-0.4,0.6-0.6,0.6h-0.2c-1,0-2.3,0.1-2.3,0.1c-0.4,0-0.8-0.2-1-0.5l-4.1-6
		c-0.2-0.3-0.6-0.4-1-0.3l-6.5,2.2c-0.3,0.1-0.6,0.5-0.5,0.9l0.6,7.1c0,0.3-0.2,0.8-0.5,1l-2.1,1.4c-0.3,0.2-0.8,0.3-1.1,0.1
		l-6.7-2.8c-0.3-0.1-0.8,0-1,0.2l-4.2,5.2c-0.2,0.3-0.2,0.7,0,1l4.3,5.6c0.2,0.3,0.3,0.8,0.1,1.1l-1.2,2.8c-0.1,0.3-0.5,0.7-0.8,0.7
		l-7.1,1.3c-0.3,0.1-0.7,0.4-0.7,0.7c0,0-0.7,4.4-0.7,7v0c0,0,0.3,0.1,0.6,0.3l6.6,2.4c0.3,0.1,0.6,0.5,0.7,0.9l0.6,3.4
		c0.1,0.3-0.1,0.8-0.3,1.1l-5.3,4.9c-0.3,0.2-0.3,0.7-0.2,1l2.9,5.6c0.2,0.3,0.6,0.5,0.9,0.4l6.9-1.6c0.3-0.1,0.8,0.1,1,0.3l2.6,2.6
		c0.3,0.2,0.4,0.7,0.3,1.1l-1.8,6.9c-0.1,0.3,0.1,0.8,0.4,1l5.4,3c0.3,0.2,0.8,0.1,1-0.2l5-5.1c0.3-0.3,0.7-0.4,1.1-0.3l3.6,0.8
		c0.3,0.1,0.7,0.4,0.8,0.7l2.2,6.7c0.1,0.3,0.5,0.6,0.8,0.6c0,0,0.2,0,0.6,0c2.1,0,5.7-0.5,5.7-0.5c0.4-0.1,0.7-0.4,0.8-0.7l1.5-7
		c0.1-0.3,0.4-0.7,0.7-0.8l3.1-1.2c0.3-0.1,0.8-0.1,1.1,0.1l5.5,4.4c0.3,0.2,0.7,0.2,1,0l5.2-3.9c0.3-0.2,0.4-0.7,0.3-1l-2.6-6.8
		c-0.1-0.3-0.1-0.8,0.2-1.1l1.7-2.3c0.2-0.3,0.6-0.5,1-0.5l7,0.8c0.4,0,0.8-0.2,0.9-0.5l2.3-6.3c0.1-0.3,0-0.8-0.3-1L184,130
		c-0.3-0.2-0.5-0.7-0.4-1L183.8,126.6L183.8,126.6z M154.8,147.4c-11.8,0-21.3-9.5-21.3-21.3s9.5-21.3,21.3-21.3s21.3,9.5,21.3,21.3
		S166.6,147.4,154.8,147.4z"/>
	<path class="st7" d="M185.8,126.5c0-0.3,0.3-0.8,0.6-0.9l6.4-3.2c0.3-0.2,0.5-0.6,0.5-0.9l-1.5-6.8c-0.1-0.3-0.5-0.6-0.8-0.7
		l-7.2-0.5c-0.4,0-0.8-0.3-0.9-0.6l-1-1.8c-0.2-0.3-0.2-0.8,0-1.1l3.6-6.2c0.2-0.3,0.1-0.8-0.1-1l-4.9-5c-0.3-0.2-0.7-0.3-1-0.1
		l-6.3,3.5c-0.3,0.2-0.8,0.2-1.1,0l-1.7-1c-0.3-0.2-0.6-0.6-0.6-0.9l-0.3-7.2c0-0.3-0.3-0.7-0.6-0.8l-6.8-1.6
		c-0.3-0.1-0.8,0.1-0.9,0.4l-3.4,6.3c-0.2,0.3-0.4,0.6-0.6,0.6H157c-1,0-2.3,0.1-2.3,0.1c-0.4,0-0.8-0.2-1-0.5l-4.1-6
		c-0.2-0.3-0.6-0.4-1-0.3l-6.5,2.2c-0.3,0.1-0.6,0.5-0.5,0.9l0.6,7.1c0,0.3-0.2,0.8-0.5,1l-2.1,1.4c-0.3,0.2-0.8,0.3-1.1,0.1
		l-6.7-2.8c-0.3-0.1-0.8,0-1,0.2l-4.2,5.2c-0.2,0.3-0.2,0.7,0,1l4.3,5.6c0.2,0.3,0.3,0.8,0.1,1.1l-1.2,2.8c-0.1,0.3-0.5,0.7-0.9,0.7
		l-7.1,1.3c-0.3,0.1-0.7,0.4-0.7,0.7c0,0-0.7,4.4-0.7,7v0c0,0,0.3,0.1,0.6,0.3l6.6,2.4c0.3,0.1,0.6,0.5,0.7,0.9l0.6,3.4
		c0.1,0.3-0.1,0.8-0.3,1.1l-5.3,4.9c-0.3,0.2-0.3,0.7-0.2,1l2.9,5.6c0.2,0.3,0.6,0.5,0.9,0.4l6.9-1.6c0.3-0.1,0.8,0.1,1,0.3l2.6,2.6
		c0.3,0.2,0.4,0.7,0.3,1.1l-1.8,6.9c-0.1,0.3,0.1,0.8,0.4,1l5.4,3c0.3,0.2,0.8,0.1,1-0.2l5-5.1c0.3-0.3,0.7-0.4,1.1-0.3l3.6,0.8
		c0.3,0.1,0.7,0.4,0.8,0.7l2.2,6.7c0.1,0.3,0.5,0.6,0.8,0.6c0,0,0.2,0,0.6,0c2.1,0,5.7-0.5,5.7-0.5c0.4-0.1,0.7-0.4,0.8-0.7l1.5-7
		c0.1-0.3,0.4-0.7,0.7-0.8l3.1-1.2c0.3-0.1,0.8-0.1,1.1,0.1l5.5,4.4c0.3,0.2,0.7,0.2,1,0l5.2-3.9c0.3-0.2,0.4-0.7,0.3-1l-2.6-6.8
		c-0.1-0.3-0.1-0.8,0.2-1.1l1.7-2.3c0.2-0.3,0.6-0.5,1-0.5l7,0.8c0.4,0,0.8-0.2,0.9-0.5l2.3-6.3c0.1-0.3,0-0.8-0.3-1l-5.8-4.3
		c-0.3-0.2-0.5-0.7-0.4-1L185.8,126.5L185.8,126.5z M156.9,147.3c-11.8,0-21.3-9.5-21.3-21.3s9.5-21.3,21.3-21.3s21.3,9.5,21.3,21.3
		S168.6,147.3,156.9,147.3z"/>
	<path class="st6" d="M146,105c0-8.5-2.4-14.2-17.5-14.2l-0.5,1l9.5,5.4c0,0.4,0,0.8,0,1.1l0,0c0,4.7-1.9,8.5-6.1,10.9l-9.9-5.7
		l-0.2,0.5v0c2.4,6.7,7.2,11.2,16.3,11.2c2.4,0,9.5,7.1,13.3,10.9l7-7C153.7,115.1,146,107.2,146,105z M146,105
		c0-8.5-2.4-14.2-17.5-14.2l-0.5,1l9.5,5.4c0,0.4,0,0.8,0,1.1l0,0c0,4.7-1.9,8.5-6.1,10.9l-9.9-5.7l-0.2,0.5v0
		c2.4,6.7,7.2,11.2,16.3,11.2c2.4,0,9.5,7.1,13.3,10.9l7-7C153.7,115.1,146,107.2,146,105z M178.5,151.2c0.9-2.6,2.7-4.7,5.4-6.2
		l9.9,5.6c-2.4-7-7.1-11.6-16.5-11.6c-2.4,0-8.5-6.1-14.2-11.8l-6.8,6.8c5.6,5.6,12.9,13,12.9,15.3c0,8.5,2.4,14.2,17.5,14.2
		l0.4-0.8l-9.9-5.6C177.2,154.9,177.6,152.9,178.5,151.2z M178.5,151.2c0.9-2.6,2.7-4.7,5.4-6.2l9.9,5.6c-2.4-7-7.1-11.6-16.5-11.6
		c-2.4,0-8.5-6.1-14.2-11.8l-6.8,6.8c5.6,5.6,12.9,13,12.9,15.3c0,8.5,2.4,14.2,17.5,14.2l0.4-0.8l-9.9-5.6
		C177.2,154.9,177.6,152.9,178.5,151.2z M188.4,93.9l2.1,2.1v0L188.4,93.9z"/>
	<path class="st42" d="M191.2,96.7l-6.6,9.5l-3.8,0.9l-27.4,27.4l2.4,3.8l-1.9,1.9c-5.7,0-8.5,6.6-8.5,9.5l-15.6,15.6
		c-2.6,0-5.3-1.5-7.2-3.7c1.9,1.8,4.2,3,6.5,3l15.6-15.6c0-2.8,2.8-9.5,8.5-9.5l1.9-1.9l-2.4-3.8l27.4-27.4l3.8-0.9l6.6-9.4
		L191.2,96.7z"/>
	<path class="st6" d="M190.5,96l-6.6,9.4l-3.8,0.9l-27.4,27.4l2.4,3.8l-1.9,1.9c-5.7,0-8.5,6.6-8.5,9.5L129,164.6
		c-2.3,0-4.6-1.2-6.5-3c-2-1.9-3.4-4.5-3.4-7l15.6-15.6c2.8,0,9.5-2.8,9.5-8.5l1.9-1.9l3.8,2.4l27.4-27.4l0.9-3.8l9.5-6.6l0.7,0.7
		L190.5,96z"/>
	<path class="st42" d="M193.8,150.9l-0.5,0.9l-9.9-5.7c-2.3,1.3-3.9,3-4.9,5.1c0.9-2.6,2.7-4.7,5.4-6.2l9.9,5.6
		C193.8,150.7,193.8,150.8,193.8,150.9z"/>
	<path class="st42" d="M187.2,162.7l-0.9,1.9c-15.1,0-17.5-5.7-17.5-14.2c0-2.4-7.6-9.9-13.3-15.6l0.8-0.8
		c5.6,5.6,12.9,13,12.9,15.3c0,8.5,2.4,14.2,17.5,14.2L187.2,162.7L187.2,162.7z"/>
	<path class="st42" d="M137.5,97.2c0,0.4,0,0.8,0,1.1l-9.9-5.7l0.4-0.9L137.5,97.2z"/>
	<path class="st42" d="M158.3,119.7l-7.6,7.6c-3.8-3.8-10.9-10.9-13.3-10.9c-9.5,0-14.2-4.7-16.6-11.8l0.2-0.5
		c2.4,6.7,7.2,11.2,16.3,11.2c2.4,0,9.5,7.1,13.3,10.9l7-7C157.9,119.3,158.1,119.5,158.3,119.7z"/>
	<path class="st42" d="M162.9,127.3c0-0.1,0.1-0.2,0.1-0.2l1.3-0.7c0.1,0,0.1-0.1,0.1-0.2l-0.3-1.4c0-0.1-0.1-0.1-0.2-0.1l-1.5-0.1
		c-0.1,0-0.2-0.1-0.2-0.1l-0.2-0.4c0-0.1,0-0.2,0-0.2l0.8-1.3c0-0.1,0-0.2,0-0.2l-1-1.1c-0.1-0.1-0.1-0.1-0.2,0l-1.3,0.7
		c-0.1,0-0.2,0-0.2,0l-0.4-0.2c-0.1,0-0.1-0.1-0.1-0.2l-0.1-1.5c0-0.1-0.1-0.2-0.1-0.2l-1.4-0.3c-0.1,0-0.2,0-0.2,0.1L157,121
		c0,0.1-0.1,0.1-0.1,0.1h0c-0.2,0-0.5,0-0.5,0c-0.1,0-0.2,0-0.2-0.1l-0.9-1.2c0-0.1-0.1-0.1-0.2-0.1l-1.4,0.5
		c-0.1,0-0.1,0.1-0.1,0.2l0.1,1.5c0,0.1,0,0.2-0.1,0.2l-0.4,0.3c-0.1,0-0.2,0.1-0.2,0l-1.4-0.6c-0.1,0-0.2,0-0.2,0.1l-0.9,1.1
		c0,0.1,0,0.2,0,0.2l0.9,1.2c0,0.1,0.1,0.2,0,0.2l-0.2,0.6c0,0.1-0.1,0.1-0.2,0.2l-1.5,0.3c-0.1,0-0.1,0.1-0.1,0.2
		c0,0-0.1,0.9-0.1,1.5l0,0c0,0,0.1,0,0.1,0.1l1.4,0.5c0.1,0,0.1,0.1,0.1,0.2l0.1,0.7c0,0.1,0,0.2-0.1,0.2l-1.1,1
		c-0.1,0.1-0.1,0.1,0,0.2l0.6,1.2c0,0.1,0.1,0.1,0.2,0.1l1.4-0.3c0.1,0,0.2,0,0.2,0.1l0.5,0.6c0.1,0.1,0.1,0.1,0.1,0.2l-0.4,1.4
		c0,0.1,0,0.2,0.1,0.2l1.1,0.6c0.1,0,0.2,0,0.2,0l1.1-1.1c0.1-0.1,0.1-0.1,0.2-0.1l0.7,0.2c0.1,0,0.1,0.1,0.2,0.1l0.5,1.4
		c0,0.1,0.1,0.1,0.2,0.1c0,0,0,0,0.1,0c0.4,0,1.2-0.1,1.2-0.1c0.1,0,0.1-0.1,0.2-0.1l0.3-1.5c0-0.1,0.1-0.1,0.1-0.2l0.6-0.3
		c0.1,0,0.2,0,0.2,0l1.1,0.9c0.1,0.1,0.1,0.1,0.2,0l1.1-0.8c0.1-0.1,0.1-0.1,0.1-0.2l-0.5-1.4c0-0.1,0-0.2,0-0.2l0.4-0.5
		c0-0.1,0.1-0.1,0.2-0.1l1.5,0.2c0.1,0,0.2,0,0.2-0.1l0.5-1.3c0-0.1,0-0.2-0.1-0.2l-1.2-0.9c-0.1,0-0.1-0.1-0.1-0.2L162.9,127.3
		L162.9,127.3z M156.8,131.7c-2.5,0-4.4-2-4.4-4.4c0-2.5,2-4.4,4.4-4.4s4.4,2,4.4,4.4C161.3,129.7,159.3,131.7,156.8,131.7z"/>
</g>
<line class="st56" x1="443.7" y1="175.1" x2="443.7" y2="175.1"/>
<line class="st56" x1="478.6" y1="174.4" x2="441.4" y2="174.4"/>
<g>
	<g>
		
			<linearGradient id="SVGID_15_" gradientUnits="userSpaceOnUse" x1="345.66" y1="534.4156" x2="446.7059" y2="534.4156" gradientTransform="matrix(1 0 0 -1 0 595.2756)">
			<stop  offset="0.1844" style="stop-color:#DBAB27"/>
			<stop  offset="0.6955" style="stop-color:#FCE012"/>
		</linearGradient>
		<path class="st57" d="M352.7,58.4c-2,0-4,0-6,0c0,2,0,4,0,6"/>
		
			<linearGradient id="SVGID_16_" gradientUnits="userSpaceOnUse" x1="345.66" y1="492.5806" x2="446.7059" y2="492.5806" gradientTransform="matrix(1 0 0 -1 0 595.2756)">
			<stop  offset="0.1844" style="stop-color:#DBAB27"/>
			<stop  offset="0.6955" style="stop-color:#FCE012"/>
		</linearGradient>
		<path class="st58" d="M346.7,78.3c0,16.3,0,32.5,0,48.8"/>
		
			<linearGradient id="SVGID_17_" gradientUnits="userSpaceOnUse" x1="345.66" y1="457.7156" x2="446.7059" y2="457.7156" gradientTransform="matrix(1 0 0 -1 0 595.2756)">
			<stop  offset="0.1844" style="stop-color:#DBAB27"/>
			<stop  offset="0.6955" style="stop-color:#FCE012"/>
		</linearGradient>
		<path class="st59" d="M346.7,134.1c0,2,0,4,0,6c2,0,4,0,6,0"/>
		
			<linearGradient id="SVGID_18_" gradientUnits="userSpaceOnUse" x1="345.6605" y1="455.2156" x2="446.7064" y2="455.2156" gradientTransform="matrix(1 0 0 -1 0 595.2756)">
			<stop  offset="0.1844" style="stop-color:#DBAB27"/>
			<stop  offset="0.6955" style="stop-color:#FCE012"/>
		</linearGradient>
		<path class="st60" d="M365.1,140.1c22.8,0,45.6,0,68.4,0"/>
		
			<linearGradient id="SVGID_19_" gradientUnits="userSpaceOnUse" x1="345.6605" y1="457.7156" x2="446.7064" y2="457.7156" gradientTransform="matrix(1 0 0 -1 0 595.2756)">
			<stop  offset="0.1844" style="stop-color:#DBAB27"/>
			<stop  offset="0.6955" style="stop-color:#FCE012"/>
		</linearGradient>
		<path class="st61" d="M439.7,140.1c2,0,4,0,6,0c0-2,0-4,0-6"/>
		
			<linearGradient id="SVGID_20_" gradientUnits="userSpaceOnUse" x1="345.6605" y1="499.5506" x2="446.7064" y2="499.5506" gradientTransform="matrix(1 0 0 -1 0 595.2756)">
			<stop  offset="0.1844" style="stop-color:#DBAB27"/>
			<stop  offset="0.6955" style="stop-color:#FCE012"/>
		</linearGradient>
		<path class="st62" d="M445.7,120.1c0-16.3,0-32.5,0-48.8"/>
		
			<linearGradient id="SVGID_21_" gradientUnits="userSpaceOnUse" x1="345.6605" y1="534.4156" x2="446.7064" y2="534.4156" gradientTransform="matrix(1 0 0 -1 0 595.2756)">
			<stop  offset="0.1844" style="stop-color:#DBAB27"/>
			<stop  offset="0.6955" style="stop-color:#FCE012"/>
		</linearGradient>
		<path class="st63" d="M445.7,64.4c0-2,0-4,0-6c-2,0-4,0-6,0"/>
		
			<linearGradient id="SVGID_22_" gradientUnits="userSpaceOnUse" x1="345.6605" y1="536.9156" x2="446.7064" y2="536.9156" gradientTransform="matrix(1 0 0 -1 0 595.2756)">
			<stop  offset="0.1844" style="stop-color:#DBAB27"/>
			<stop  offset="0.6955" style="stop-color:#FCE012"/>
		</linearGradient>
		<path class="st64" d="M427.3,58.4c-22.8,0-45.6,0-68.4,0"/>
	</g>
</g>
<g>
	
		<linearGradient id="SVGID_23_" gradientUnits="userSpaceOnUse" x1="396.13" y1="96.7356" x2="571.81" y2="96.7356" gradientTransform="matrix(1 0 0 -1 0 595.2756)">
		<stop  offset="0.1844" style="stop-color:#DBAB27"/>
		<stop  offset="0.6955" style="stop-color:#FCE012"/>
	</linearGradient>
	<ellipse class="st65" cx="484" cy="498.5" rx="86.8" ry="39"/>
</g>
<g>
	
		<linearGradient id="SVGID_24_" gradientUnits="userSpaceOnUse" x1="76.2" y1="466.8856" x2="232.1" y2="466.8856" gradientTransform="matrix(1 0 0 -1 0 595.2756)">
		<stop  offset="0.1844" style="stop-color:#DBAB27"/>
		<stop  offset="0.6955" style="stop-color:#FCE012"/>
	</linearGradient>
	<ellipse class="st66" cx="154.1" cy="128.4" rx="76.9" ry="59"/>
</g>
<g>
	
		<linearGradient id="SVGID_25_" gradientUnits="userSpaceOnUse" x1="562.28" y1="462.6456" x2="675.56" y2="462.6456" gradientTransform="matrix(1 0 0 -1 0 595.2756)">
		<stop  offset="0.1844" style="stop-color:#DBAB27"/>
		<stop  offset="0.6955" style="stop-color:#FCE012"/>
	</linearGradient>
	<ellipse class="st67" cx="618.9" cy="132.6" rx="55.6" ry="44.1"/>
</g>
<g>
	<g>
		
			<linearGradient id="SVGID_26_" gradientUnits="userSpaceOnUse" x1="141.0421" y1="405.5256" x2="253.0584" y2="405.5256" gradientTransform="matrix(1 0 0 -1 0 595.2756)">
			<stop  offset="0.1844" style="stop-color:#DBAB27"/>
			<stop  offset="0.6955" style="stop-color:#FCE012"/>
		</linearGradient>
		<path class="st68" d="M142,186.8c0,2,0,4,0,6"/>
		
			<linearGradient id="SVGID_27_" gradientUnits="userSpaceOnUse" x1="141.04" y1="372.4456" x2="253.0563" y2="372.4456" gradientTransform="matrix(1 0 0 -1 0 595.2756)">
			<stop  offset="0.1844" style="stop-color:#DBAB27"/>
			<stop  offset="0.6955" style="stop-color:#FCE012"/>
		</linearGradient>
		<path class="st69" d="M142,204.2c0,7.9,0,15.7,0,23.6c0,2,0,3.9,0,5.9c0.2,0.7,0.7,2.3,2.1,3.6c0,0,1.9,1.8,5.3,2.2
			c4.1,0.4,40.7,0.9,91.9,1.1"/>
		
			<linearGradient id="SVGID_28_" gradientUnits="userSpaceOnUse" x1="141.0421" y1="354.7756" x2="253.0584" y2="354.7756" gradientTransform="matrix(1 0 0 -1 0 595.2756)">
			<stop  offset="0.1844" style="stop-color:#DBAB27"/>
			<stop  offset="0.6955" style="stop-color:#FCE012"/>
		</linearGradient>
		<path class="st70" d="M247.1,240.5c2,0,4,0,6,0"/>
	</g>
</g>
<path class="st71" d="M181.6,229.2"/>
<g>
	<g>
		
			<linearGradient id="SVGID_29_" gradientUnits="userSpaceOnUse" x1="541.2747" y1="125.0206" x2="627.097" y2="125.0206" gradientTransform="matrix(1 0 0 -1 0 595.2756)">
			<stop  offset="0.1844" style="stop-color:#DBAB27"/>
			<stop  offset="0.6955" style="stop-color:#FCE012"/>
		</linearGradient>
		<path class="st72" d="M541.9,472.2c1.5-1.3,3-2.6,4.5-3.9"/>
		
			<linearGradient id="SVGID_30_" gradientUnits="userSpaceOnUse" x1="541.2708" y1="173.8376" x2="627.0932" y2="173.8376" gradientTransform="matrix(1 0 0 -1 0 595.2756)">
			<stop  offset="0.1844" style="stop-color:#DBAB27"/>
			<stop  offset="0.6955" style="stop-color:#FCE012"/>
		</linearGradient>
		<path class="st73" d="M555.9,460.1c4.1-3.7,8.2-7.4,12.4-11.1c19.2-17.9,38.3-35.9,57.5-53.8c0.2-0.4,0.5-1.5,0.2-2.8
			c-0.6-2.2-2.8-2.9-3-3c-5-2.1-10-4.3-15-6.4"/>
		
			<linearGradient id="SVGID_31_" gradientUnits="userSpaceOnUse" x1="541.2708" y1="215.9506" x2="627.0932" y2="215.9506" gradientTransform="matrix(1 0 0 -1 0 595.2756)">
			<stop  offset="0.1844" style="stop-color:#DBAB27"/>
			<stop  offset="0.6955" style="stop-color:#FCE012"/>
		</linearGradient>
		<path class="st74" d="M602.2,380.5c-1.8-0.8-3.7-1.6-5.5-2.4"/>
	</g>
</g>
<g>
	<g>
		
			<linearGradient id="SVGID_32_" gradientUnits="userSpaceOnUse" x1="161.8462" y1="194.4411" x2="408.6857" y2="194.4411" gradientTransform="matrix(1 0 0 -1 0 595.2756)">
			<stop  offset="0.1844" style="stop-color:#DBAB27"/>
			<stop  offset="0.6955" style="stop-color:#FCE012"/>
		</linearGradient>
		<path class="st75" d="M162.3,399.6c1.9,0.9,3.7,1.7,5.5,2.5"/>
		
			<linearGradient id="SVGID_33_" gradientUnits="userSpaceOnUse" x1="161.8475" y1="199.6048" x2="408.6871" y2="199.6048" gradientTransform="matrix(1 0 0 -1 0 595.2756)">
			<stop  offset="0.1844" style="stop-color:#DBAB27"/>
			<stop  offset="0.6955" style="stop-color:#FCE012"/>
		</linearGradient>
		<path class="st76" d="M179,407.2c35,16.1,48.1,22.6,49.6,23.9c0.1,0.1,1.1,1,2.6,1.7c1.9,0.8,3.6,0.8,4.6,0.8
			c3.4-0.1,7.2-0.9,8.8-1.5c4.9-1.9,66.9-32.1,152.7-74.5"/>
		
			<linearGradient id="SVGID_34_" gradientUnits="userSpaceOnUse" x1="161.8475" y1="241.7156" x2="408.6871" y2="241.7156" gradientTransform="matrix(1 0 0 -1 0 595.2756)">
			<stop  offset="0.1844" style="stop-color:#DBAB27"/>
			<stop  offset="0.6955" style="stop-color:#FCE012"/>
		</linearGradient>
		<path class="st77" d="M402.9,354.9c1.8-0.9,3.6-1.8,5.4-2.7"/>
	</g>
</g>
<g>
	<g>
		
			<linearGradient id="SVGID_35_" gradientUnits="userSpaceOnUse" x1="445.7" y1="499.5306" x2="480.3989" y2="499.5306" gradientTransform="matrix(1 0 0 -1 0 595.2756)">
			<stop  offset="0.1844" style="stop-color:#DBAB27"/>
			<stop  offset="0.6955" style="stop-color:#FCE012"/>
		</linearGradient>
		<path class="st78" d="M445.7,95.7c2,0,4,0,6,0.1"/>
		
			<linearGradient id="SVGID_36_" gradientUnits="userSpaceOnUse" x1="445.698" y1="461.302" x2="480.3969" y2="461.302" gradientTransform="matrix(1 0 0 -1 0 595.2756)">
			<stop  offset="0.1844" style="stop-color:#DBAB27"/>
			<stop  offset="0.6955" style="stop-color:#FCE012"/>
		</linearGradient>
		<path class="st79" d="M463.8,95.9c4.1,0,8.1,0.1,12.2,0.1c0.5,0.1,1.4,0.3,2.1,1c0.7,0.8,1,1.7,1.1,3.2c0.2,1.4,0.3,3.4,0.1,5.9
			c-0.2,22.3-0.3,44.6-0.5,67"/>
		
			<linearGradient id="SVGID_37_" gradientUnits="userSpaceOnUse" x1="445.698" y1="413.1356" x2="480.3969" y2="413.1356" gradientTransform="matrix(1 0 0 -1 0 595.2756)">
			<stop  offset="0.1844" style="stop-color:#DBAB27"/>
			<stop  offset="0.6955" style="stop-color:#FCE012"/>
		</linearGradient>
		<path class="st80" d="M478.8,179.1c0,2,0,4,0,6"/>
	</g>
</g>
<g>
	<g>
		
			<linearGradient id="SVGID_38_" gradientUnits="userSpaceOnUse" x1="676.61" y1="459.0506" x2="742.4946" y2="459.0506" gradientTransform="matrix(1 0 0 -1 0 595.2756)">
			<stop  offset="0.1844" style="stop-color:#DBAB27"/>
			<stop  offset="0.6955" style="stop-color:#FCE012"/>
		</linearGradient>
		<path class="st81" d="M676.8,135.6c2,0.4,3.9,0.8,5.9,1.2"/>
		
			<linearGradient id="SVGID_39_" gradientUnits="userSpaceOnUse" x1="676.6146" y1="437.5073" x2="742.4992" y2="437.5073" gradientTransform="matrix(1 0 0 -1 0 595.2756)">
			<stop  offset="0.1844" style="stop-color:#DBAB27"/>
			<stop  offset="0.6955" style="stop-color:#FCE012"/>
		</linearGradient>
		<path class="st82" d="M693.7,139.1c14.3,2.9,28.6,5.8,42.9,8.7c0.5,0.2,2.6,0.9,3.9,3c1.6,2.7,0.8,5.4,0.6,5.8
			c-7.3,6.7-14.6,13.4-21.9,20.1"/>
		
			<linearGradient id="SVGID_40_" gradientUnits="userSpaceOnUse" x1="676.6146" y1="412.7056" x2="742.4992" y2="412.7056" gradientTransform="matrix(1 0 0 -1 0 595.2756)">
			<stop  offset="0.1844" style="stop-color:#DBAB27"/>
			<stop  offset="0.6955" style="stop-color:#FCE012"/>
		</linearGradient>
		<path class="st83" d="M715.1,180.5c-1.5,1.4-3,2.7-4.4,4.1"/>
	</g>
</g>
<g transform="translate(0 -252.36)">
	
		<linearGradient id="SVGID_41_" gradientUnits="userSpaceOnUse" x1="365.78" y1="507.2408" x2="426.5802" y2="507.2408" gradientTransform="matrix(1 0 0 -1 0 847.6356)">
		<stop  offset="0.2542" style="stop-color:#F8C230"/>
		<stop  offset="0.6816" style="stop-color:#FFF200"/>
	</linearGradient>
	<path class="st84" d="M426.6,366c0,0.6-0.4,1.2-1.1,1.2h-59.7c0-0.6,0.4-1.2,1.1-1.2c5.2-0.3,9.5-1.3,11.7-29.2
		c0.6-5.5,4.5-15.8,15.3-16.1c0-4.7,1.7-7.1,3.4-7.1c1.5,0,2.9,2,3.1,6c0,0.4,0,0.7,0,1.1c2.6,0.1,4.9,0.7,6.8,1.8
		c4.5,3.5,6.4,9.2,6.7,12.7c1.7,21.7,4.7,27.4,8.4,29C423.5,365.5,425,365.8,426.6,366z"/>
	
		<linearGradient id="SVGID_42_" gradientUnits="userSpaceOnUse" x1="390.68" y1="473.8856" x2="403.52" y2="473.8856" gradientTransform="matrix(1 0 0 -1 0 847.6356)">
		<stop  offset="0.2542" style="stop-color:#F8C230"/>
		<stop  offset="0.6816" style="stop-color:#FFF200"/>
	</linearGradient>
	<path color-rendering="auto" shape-rendering="auto" image-rendering="auto" class="st85" d="M390.9,369.7
		c-0.2,0.6-0.3,1.2-0.3,1.8c0,3.5,2.9,6.4,6.4,6.4l0,0c3.5,0,6.4-2.9,6.4-6.4l0,0c0-0.6-0.1-1.2-0.3-1.8H390.9L390.9,369.7z"/>
</g>
<g class="st86">
	
		<linearGradient id="SVGID_43_" gradientUnits="userSpaceOnUse" x1="548.1415" y1="297.8089" x2="260.0248" y2="402.1425" gradientTransform="matrix(1 0 0 -1 0 595.2756)">
		<stop  offset="3.790000e-02" style="stop-color:#F8C230;stop-opacity:0.3"/>
		<stop  offset="0.4095" style="stop-color:#FFF200;stop-opacity:0.7"/>
	</linearGradient>
	<path class="st87" d="M544.8,370.7c-6.3,0.5-12.7-0.3-18.8-2.5L244.9,266.9c-3.3-1.2-5.3-3.7-6.1-6.5l0.1-137.9c0,0,0,0,0,0
		c-0.5-1.6-0.6,134.5-0.2,132.9c-0.1-3.8,0-145.5-0.1-149.3h0c0.1,2.5,1.1,4.9,2.9,6.7c1,0.9,2.1,1.7,3.6,2.2l281.2,101.3
		c5.9,2.1,12,2.9,18.1,2.5C544.5,223.5,544.6,366,544.8,370.7z"/>
	
		<linearGradient id="SVGID_44_" gradientUnits="userSpaceOnUse" x1="675.6054" y1="451.054" x2="384.3821" y2="472.7391" gradientTransform="matrix(1 0 0 -1 0 595.2756)">
		<stop  offset="0" style="stop-color:#F8C230;stop-opacity:0.3"/>
		<stop  offset="1" style="stop-color:#FFFCC7;stop-opacity:0.7"/>
	</linearGradient>
	<path class="st88" d="M692.3,266.1c-6.3,0.5-12.7-0.3-18.8-2.5L392.4,162.3c-3.3-1.2-5.3-3.7-6.1-6.5l0.1-137.9c0,0,0,0,0,0
		c-0.5-1.6-0.6,134.5-0.2,132.9c-0.1-3.8,0-145.5-0.1-149.3h0c0.1,2.5,1.1,4.9,2.9,6.7c1,0.9,2.1,1.7,3.5,2.2l281.2,101.3
		c5.9,2.1,12,2.9,18.1,2.5C692,118.9,692.1,261.4,692.3,266.1z"/>
	
		<linearGradient id="SVGID_45_" gradientUnits="userSpaceOnUse" x1="682.1213" y1="389.9606" x2="555.0388" y2="310.632" gradientTransform="matrix(1 0 0 -1 0 595.2756)">
		<stop  offset="0" style="stop-color:#F8C230;stop-opacity:0.3"/>
		<stop  offset="0.8013" style="stop-color:#FFF200;stop-opacity:0.7"/>
	</linearGradient>
	<path class="st89" d="M693.6,264.9c-0.4,1.8-1.4,3.5-3.1,4.7l-122.9,92.4c-6.8,5.1-14.8,8.1-23.1,8.8c-0.2-4.7-0.1-147.4-0.3-152.1
		c8.5-0.6,16.8-3.6,23.8-8.8l122.2-92l0.6-0.5c1.8-1.4,2.8-3.2,3.2-5.2c0,3.7-0.4,145.3-0.4,149
		C693.9,262.5,693.9,263.8,693.6,264.9z"/>
	
		<linearGradient id="SVGID_46_" gradientUnits="userSpaceOnUse" x1="301.5764" y1="435.9638" x2="238.5084" y2="300.076" gradientTransform="matrix(1 0 0 -1 0 595.2756)">
		<stop  offset="3.790000e-02" style="stop-color:#F8C230;stop-opacity:0.3"/>
		<stop  offset="0.2292" style="stop-color:#FFF769;stop-opacity:0.7"/>
	</linearGradient>
	<path class="st90" d="M389.3,154c-0.4,1.8-1.4,3.4-3.1,4.7l-122.9,92.4c-6.8,5.1-14.8,8.1-23.1,8.8c-0.2-4.7-0.1-147.4-0.4-152.1
		c8.5-0.6,16.8-3.6,23.8-8.8L385.9,7.1l0.6-0.5c1.8-1.4,2.9-3.2,3.2-5.2c0,3.7-0.4,145.3-0.4,149C389.6,151.6,389.6,152.9,389.3,154
		z"/>
</g>
</svg>
