<?xml version="1.0" encoding="UTF-8" standalone="no"?>
<!-- Created with Inkscape (http://www.inkscape.org/) -->

<svg
   width="110.142mm"
   height="31.573mm"
   viewBox="0 0 110.142 31.573"
   version="1.1"
   id="svg80530"
   inkscape:version="1.1 (c68e22c387, 2021-05-23)"
   sodipodi:docname="xenoko.svg"
   xmlns:inkscape="http://www.inkscape.org/namespaces/inkscape"
   xmlns:sodipodi="http://sodipodi.sourceforge.net/DTD/sodipodi-0.dtd"
   xmlns:xlink="http://www.w3.org/1999/xlink"
   xmlns="http://www.w3.org/2000/svg"
   xmlns:svg="http://www.w3.org/2000/svg">
  <sodipodi:namedview
     id="namedview80532"
     pagecolor="#ffffff"
     bordercolor="#666666"
     borderopacity="1.0"
     inkscape:pageshadow="2"
     inkscape:pageopacity="0.0"
     inkscape:pagecheckerboard="0"
     inkscape:document-units="mm"
     showgrid="false"
     inkscape:zoom="0.97512882"
     inkscape:cx="119.47139"
     inkscape:cy="16.920841"
     inkscape:window-width="1920"
     inkscape:window-height="1017"
     inkscape:window-x="-8"
     inkscape:window-y="-8"
     inkscape:window-maximized="1"
     inkscape:current-layer="g80788"
     showborder="true"
     width="110.142mm" />
  <defs
     id="defs80527">
    <radialGradient
       inkscape:collect="always"
       xlink:href="#linearGradient5955"
       id="radialGradient5957"
       cx="79021.898"
       cy="24547.436"
       fx="79021.898"
       fy="24547.436"
       r="27242.197"
       gradientUnits="userSpaceOnUse"
       gradientTransform="matrix(0.45707233,0.24822506,-0.23888755,0.43987859,67954.982,-12260.374)" />
    <linearGradient
       inkscape:collect="always"
       id="linearGradient5955">
      <stop
         style="stop-color:#aec64d;stop-opacity:1"
         offset="0"
         id="stop5951" />
      <stop
         style="stop-color:#4dc650;stop-opacity:1"
         offset="1"
         id="stop5953" />
    </linearGradient>
  </defs>
  <g
     inkscape:label="Layer 1"
     inkscape:groupmode="layer"
     id="layer1">
    <g
       id="g80788">
      <g
         id="g80845"
         inkscape:export-filename="C:\Users\tejiz\OneDrive\Documents\xenoko.png"
         inkscape:export-xdpi="1598.5682"
         inkscape:export-ydpi="1598.5682"
         transform="matrix(0.77020439,0,0,0.77560188,-31.888067,-81.395274)">
        <g
           id="g28680"
           transform="matrix(0.01226223,0,0,0.01226223,-264.58085,50.677754)">
          <path
             sodipodi:type="star"
             style="opacity:1;fill:url(#radialGradient5957);fill-opacity:1;stroke-width:5"
             id="path1533"
             inkscape:flatsided="true"
             sodipodi:sides="4"
             sodipodi:cx="97222.773"
             sodipodi:cy="18002.4"
             sodipodi:r1="27464.686"
             sodipodi:r2="9392.0176"
             sodipodi:arg1="1.2545651"
             sodipodi:arg2="2.0399633"
             inkscape:rounded="-0.96086576"
             inkscape:randomized="0"
             transform="matrix(0.05613355,-0.02872057,0.02872057,0.05613355,20510.294,7867.1711)"
             inkscape:transform-center-x="0.00010226683"
             inkscape:transform-center-y="0.00045583738"
             d="M 105763.93,44105.228 C 141234.26,32498.911 59513.629,-8926.7756 71119.946,26543.557 82726.263,62013.89 124151.95,-19706.744 88681.617,-8100.4269 53211.284,3505.8898 134931.92,44931.576 123325.6,9461.2435 111719.28,-26009.089 70293.597,55711.544 105763.93,44105.228 Z" />
          <path
             id="path27330"
             style="opacity:0.36859;fill:#ffffff;fill-opacity:1;stroke-width:1.88074"
             d="m 27256.146,5677.6296 a 1204.2231,1204.2231 0 0 0 -1179.273,1221.3165 1204.2231,1204.2231 0 0 0 118.932,503.5607 c 153.948,-205.5618 250.433,-538.2845 290.534,-905.2608 100.467,859.5641 510.729,1530.3701 1227.587,808.1074 716.859,-722.2629 42.991,-1127.4752 -817.303,-1221.4839 362.384,-42.3559 691.544,-139.2502 896.495,-291.6278 a 1204.2231,1204.2231 0 0 0 -536.972,-114.6121 z" />
        </g>
        <g
           aria-label="Xenoko"
           id="text25858"
           style="font-weight:bold;font-size:22.8628px;line-height:1.25;-inkscape-font-specification:'sans-serif, Bold';fill:#89c64e;stroke-width:0.571572">
          <path
             d="m 106.91967,135.11327 h -4.95658 l -3.583475,-5.47011 -3.650457,5.47011 h -4.733314 l 5.894316,-8.37261 -5.771518,-8.24981 h 4.94542 l 3.460678,5.17985 3.56115,-5.17985 h 4.74448 l -5.80501,8.08236 z"
             id="path80804" />
          <path
             d="m 121.4322,129.58734 h -9.19871 q 0.0893,1.47358 1.11635,2.25503 1.0382,0.78144 3.04763,0.78144 1.27263,0 2.46713,-0.4577 1.19449,-0.4577 1.88662,-0.98239 h 0.44654 v 3.22625 q -1.36194,0.54701 -2.5676,0.7926 -1.20565,0.2456 -2.66807,0.2456 -3.77325,0 -5.78268,-1.69685 -2.00942,-1.69685 -2.00942,-4.83378 0,-3.10345 1.89779,-4.91193 1.90895,-1.81965 5.2245,-1.81965 3.0588,0 4.59936,1.55172 1.54056,1.54056 1.54056,4.44307 z m -3.99653,-2.35549 q -0.0335,-1.26147 -0.62515,-1.89779 -0.59167,-0.63632 -1.84198,-0.63632 -1.161,0 -1.90895,0.60283 -0.74795,0.60283 -0.83726,1.93128 z"
             id="path80806" />
          <path
             d="m 136.86012,135.11327 h -4.04118 v -6.21806 q 0,-0.75912 -0.0781,-1.50707 -0.0781,-0.75912 -0.26793,-1.11635 -0.22327,-0.41305 -0.65864,-0.60283 -0.42421,-0.18977 -1.19449,-0.18977 -0.54701,0 -1.11635,0.17861 -0.55818,0.17862 -1.21682,0.56934 v 8.88613 h -4.01885 v -12.53659 h 4.01885 v 1.38427 q 1.07169,-0.83726 2.05408,-1.2838 0.99355,-0.44654 2.1992,-0.44654 2.03176,0 3.17043,1.18333 1.14984,1.18333 1.14984,3.53882 z"
             id="path80808" />
          <path
             d="m 153.3709,128.85056 q 0,3.09228 -1.80848,4.87843 -1.79732,1.775 -5.05706,1.775 -3.25973,0 -5.06821,-1.775 -1.79732,-1.78615 -1.79732,-4.87843 0,-3.11461 1.80848,-4.88961 1.81965,-1.77499 5.05705,-1.77499 3.28207,0 5.06822,1.78616 1.79732,1.78615 1.79732,4.87844 z m -4.94542,3.04762 q 0.39072,-0.48002 0.5805,-1.14983 0.20095,-0.68098 0.20095,-1.87547 0,-1.10518 -0.20095,-1.85313 -0.20094,-0.74796 -0.55817,-1.1945 -0.35723,-0.4577 -0.85959,-0.64748 -0.50235,-0.18978 -1.08286,-0.18978 -0.5805,0 -1.0382,0.15629 -0.44654,0.15629 -0.85959,0.62516 -0.36839,0.43537 -0.59166,1.19449 -0.21211,0.75911 -0.21211,1.90895 0,1.02704 0.18978,1.78616 0.18978,0.74795 0.55818,1.20565 0.35723,0.43538 0.84842,0.63632 0.50236,0.20094 1.13867,0.20094 0.54702,0 1.03821,-0.17861 0.50235,-0.18978 0.84842,-0.62516 z"
             id="path80810" />
          <path
             d="m 169.55794,135.11327 h -4.67749 l -3.5165,-5.45894 -1.09402,1.32845 v 4.13049 h -4.01885 V 117.7429 h 4.01885 v 10.37087 l 4.33143,-5.53709 h 4.63284 l -4.51004,5.40312 z"
             id="path80812" />
          <path
             d="m 184.40536,128.85056 q 0,3.09228 -1.80848,4.87843 -1.79732,1.775 -5.05705,1.775 -3.25974,0 -5.06822,-1.775 -1.79732,-1.78615 -1.79732,-4.87843 0,-3.11461 1.80848,-4.88961 1.81965,-1.77499 5.05706,-1.77499 3.28206,0 5.06821,1.78616 1.79732,1.78615 1.79732,4.87844 z m -4.94542,3.04762 q 0.39073,-0.48002 0.58051,-1.14983 0.20094,-0.68098 0.20094,-1.87547 0,-1.10518 -0.20094,-1.85313 -0.20095,-0.74796 -0.55818,-1.1945 -0.35723,-0.4577 -0.85959,-0.64748 -0.50235,-0.18978 -1.08285,-0.18978 -0.5805,0 -1.03821,0.15629 -0.44654,0.15629 -0.85958,0.62516 -0.3684,0.43537 -0.59167,1.19449 -0.21211,0.75911 -0.21211,1.90895 0,1.02704 0.18978,1.78616 0.18978,0.74795 0.55818,1.20565 0.35723,0.43538 0.84842,0.63632 0.50236,0.20094 1.13868,0.20094 0.54701,0 1.0382,-0.17861 0.50236,-0.18978 0.84842,-0.62516 z"
             id="path80814" />
        </g>
      </g>
    </g>
  </g>
</svg>
