<svg id="Layer_1" data-name="Layer 1" xmlns="http://www.w3.org/2000/svg" xmlns:xlink="http://www.w3.org/1999/xlink" viewBox="0 0 861 926"><defs><style>.cls-1{fill:none;}.cls-2{fill:#fff;opacity:0.61;}.cls-2,.cls-4,.cls-5{fill-rule:evenodd;}.cls-3{opacity:0.65;}.cls-4{opacity:0.46;}.cls-4,.cls-5{fill:url(#hive_dots);}.cls-5{opacity:0.5;}</style><pattern id="hive_dots" data-name="hive dots" width="46.03" height="53.15" patternUnits="userSpaceOnUse" viewBox="0 0 46.03 53.16"><rect class="cls-1" width="46.03" height="53.15"/><polygon class="cls-2" points="34.52 40.16 45.78 46.66 45.78 59.66 34.52 66.16 23.27 59.66 23.27 46.66 34.52 40.16"/><polygon class="cls-2" points="11.51 40.16 22.77 46.66 22.77 59.66 11.51 66.16 0.25 59.66 0.25 46.66 11.51 40.16"/><polygon class="cls-2" points="46.03 13.58 57.29 20.08 57.29 33.08 46.03 39.58 34.77 33.08 34.77 20.08 46.03 13.58"/><polygon class="cls-2" points="23.02 13.58 34.27 20.08 34.27 33.08 23.02 39.58 11.76 33.08 11.76 20.08 23.02 13.58"/><polygon class="cls-2" points="0 13.58 11.26 20.08 11.26 33.08 0 39.58 -11.26 33.08 -11.26 20.08 0 13.58"/><polygon class="cls-2" points="34.52 -13 45.78 -6.5 45.78 6.5 34.52 13 23.27 6.5 23.27 -6.5 34.52 -13"/><polygon class="cls-2" points="11.51 -13 22.77 -6.5 22.77 6.5 11.51 13 0.25 6.5 0.25 -6.5 11.51 -13"/></pattern></defs><title>africa</title><g class="cls-3"><path class="cls-4" d="M349,.2V0h2l1.2,3.5Q353.51,7,354,8l.5,1,2.7-1.8c1.87-1.13,3.13-1.7,3.8-1.7h1l.2.3.3.2.5,1,.5,1v3l-.3.2-.2.3-.2.3c-.2.13-1,.87-2.3,2.2s-2,3.33-2,6a32.71,32.71,0,0,0,1,8q1,4-4,8.5l-5,4.5-.3.2-.2.3-.2.3-.3.2-.3.2-.2.3-.2.3-.3.2v2l.3.2.2.3.2.3.3.2.3.2.2.3h3a11.05,11.05,0,0,0,4.5-.7q1.5-.79,4,4a14.51,14.51,0,0,0,7,6.7q4.5,2,15,3a92.69,92.69,0,0,1,16.3,2.7q5.7,1.8,9,8.3T421,78.8A39.81,39.81,0,0,1,436.5,85q6.5,4.5,11,5t5.5.5h1l.2-.3.3-.2.3-.2.2-.3.2-.3.3-.2.3-.2.2-.3,2.2-2.3q2.3-2.2,2.3-9.7t8.3-13.7q8.2-6.3,15.2-5.3A23.92,23.92,0,0,1,495.5,62q4.5,3.5,13.7,4.8t11,3.4q1.8,2.3,18.8,4.3T561.5,78q5.5,1.5,12-2t8-3.8L583,72l1.2,3.5q1.31,3.5,1.8,5l.5,1.5.3,1,.2,1h2l.2-1,.3-1,2.7-4.8q2.81-4.7,3-5l.6-.4.2-.3.2-.3.3-.2,1.3,2.2q1.2,2.3,14.2,2.3t16.8,5.3Q632.51,86,633,96t0,13l-.5,3-.3,2.5L632,117l-1-.2-1-.3-1-.5-1-.5-.2-.3-.3-.2-.3-.2-.2-.3-.2-.3-.3-.2-.3-.2-.2-.3-.2-.3-.3-.2-.3-.2-.2-.3-1-.5a23.32,23.32,0,0,1-3.2-2.2,9,9,0,0,1-3-5.8c-.53-2.67-1.47-4.27-2.8-4.8l-2-.7-.2-.3-.3-.2-.3-.2-.2-.3-.2-.3-.3-.2-.3-.2-.2-.3-.2-.3-.3-.2-.3-.2-.2-.3-.2-.3-.3-.2-.5-1-.5-1-.3-.2-.2-.3-.2-.3-.3-.2-.3.2-.2.3-.2.3-.3.2v3l.5,1,.5,1,.3.2.2.3.2.3.3.2.3.2.2.3.2.3.3.2,7,9.5q7,9.5,8.7,16.5t5,8.5q3.3,1.5,13.3,15.5t11,20.5q1,6.5,9,13T674,196q2.5,6,3.5,17t2.7,14.5q1.8,3.5,11,10a31.93,31.93,0,0,1,12.6,17.7A36,36,0,0,0,716.5,274a126.12,126.12,0,0,0,14.3,10.2q4.69,2.81,14.4,11T759,305.8c2.67,1.47,3.93,4,3.8,7.7s-1,6-2.3,7a6.08,6.08,0,0,0-2.3,4.5l-.2,3,5,.8a13.64,13.64,0,0,1,8,3.7q3,3,11.5,3c5.67,0,8.83-.33,9.5-1s3.33-1.33,8-2,7.33-1.57,8-2.7,1.33-1.8,2-1.8a.88.88,0,0,0,1-1c0-.67,2.17-.83,6.5-.5s6.77-.67,7.3-3,3.6-3.57,9.4-3.7,10.3-1.47,13.3-3.8,5.33-3.5,7-3.5H857l1.5.5,1.5.5.2.3.3.2.5,4.5c.33,3,.6,4.5.8,4.5h.2v12l-10.8,27a393.22,393.22,0,0,1-22.4,47.8Q817,430.5,803,444t-23.2,20.8q-9.3,7.2-26,28t-20.3,22.4q-3.5,1.8-4.3,7.8a23.86,23.86,0,0,1-4.4,11.2q-3.79,5.29-6.3,5t-3.3,4.8a71.53,71.53,0,0,0-.7,10,45,45,0,0,0,2,12,60.59,60.59,0,0,1,2,16.5,56.3,56.3,0,0,0,2.7,17.7q2.81,8.29,6.6,12t3.7,13.8v33.5q0,23.5-6.7,30.7t-25.6,17Q680.5,717,672.8,723.8t-10.8,8a5.16,5.16,0,0,0-3.5,4q-.5,2.7-3.5,2.4t-2.8,7.3a38.09,38.09,0,0,0,2.3,12.5q2,5,3,14.5a54.42,54.42,0,0,1-.7,17.3q-1.8,7.69-18,15t-17.3,8.7q-1,1.5-1.5,12.5t-3,14.5a45.82,45.82,0,0,0-4.8,9,13.82,13.82,0,0,1-6.7,7.7q-4.5,2.29-12.3,13a180.39,180.39,0,0,1-15,18.6,121.81,121.81,0,0,1-16.7,14.7q-9.5,7-13.5,9T534,916q-10,1.5-11.5,3t-5,.5q-3.5-1-14.5-.5t-13,2q-2,1.5-11.5,2c-6.33.33-9.83.67-10.5,1l-1,.5-1,.5a11.88,11.88,0,0,1-3.5.8l-2.5.2-.2-.5-.3-.5-.3-.2-.2-.3-1.5-.5-1.5-.5-.2-.3-.3-.2-.3-.2-.2-.3-.2-.3-.3-.2-.3-.2q-.19-.3-5.7-5.8t-7.3-9.8q-1.69-4.2,1-4.7a5.49,5.49,0,0,0,4-2.5l1.3-2,.3-.2.2-.3-.2-.3q-.3-.19-7.3-11.7t-8-17q-1-5.5-6.3-12.3t-12.4-17.4a63.52,63.52,0,0,1-9.8-24.3q-2.5-13.5-3.5-25.5T389,759q-10.5-17-17.5-30.5a65,65,0,0,1-7.5-28q-.5-14.5.5-16.5t4-14A48.05,48.05,0,0,1,379,649.5q7.5-8.5,8-15.5a27.14,27.14,0,0,0-2.5-13.5q-3-6.5-3.5-18T373,574q-7.5-17-10.5-24T349,531.5A217.29,217.29,0,0,1,331.5,510q-7-10-7.5-14c-.33-2.67-.07-4.27.8-4.8s1.6-1.93,2.4-4.4a62.37,62.37,0,0,0,2.3-10.3q1-6.5,0-7.5t1.5-7.5a48.47,48.47,0,0,0,3-14.5c.33-5.33.17-8.5-.5-9.5a3.29,3.29,0,0,1,0-3.5l1-2v-2l-.3-.2-.2-.3h-1a11.36,11.36,0,0,0-3.5,1q-2.5,1-7-4T317,422a36.29,36.29,0,0,1-6,1.5,113.41,113.41,0,0,1-15.5,1.5q-10.5.5-12-1t-5.3-8.2a80.28,80.28,0,0,0-7-11q-3.19-4.31-22.7-4.3T225,403a34.69,34.69,0,0,1-10,4,77.16,77.16,0,0,0-15,6q-9,4.5-13,5.5a14.56,14.56,0,0,1-9-1q-5-2-19.5-2.5a86.07,86.07,0,0,0-25.5,2.5,97,97,0,0,1-18.5,3.5q-7.5.5-16-4a49.94,49.94,0,0,1-13.7-10.2,71.3,71.3,0,0,0-9-8.6q-3.8-2.7-18.3-15.7T42,362.5a68.36,68.36,0,0,0-2.2-10.7q-1.3-3.8-7.8-9.3t-7-8q-.49-2.5-10.5-13T4,305c-.33-4-.17-6.5.5-7.5a19.6,19.6,0,0,0,2-4.5q1-3-2.3-8.5L1,279l.2-1.5.3-1.5.3-.2.2-.3.2-.3.3-.2.5-1,.5-1,.3-.2.2-.3.2-.3.3-.2.5-1c.33-.67,1-1.83,2-3.5s3.17-7.67,6.5-18,5-18.67,5-25,.33-10,1-11,1-3.17,1-6.5-.5-5.5-1.5-6.5-1.5-4.67-1.5-11,1.23-10.33,3.7-12,5.47-6,8.8-13S36.83,153,40.5,151,48,144.27,52,136.8s7.33-11.63,10-12.3,5.93-4.1,9.8-10.3,8.13-9.47,13-10A39.9,39.9,0,0,0,97.5,101q5.5-2.5,13.7-10.2T121,74.5q1.5-8.5,4.2-12.3a40.92,40.92,0,0,0,5-9q2.3-5.21,16.6-12.4T169.5,23L178,12.5l.2-.3.3-.2.3-.2.2-.3.2-.3.3-.2.3.2.2.3.2.3.3.2,4.3,4.8q4.2,4.69,14.7,5.2T214,24q4,1.5,13.5-4T240,14a17,17,0,0,0,7-3.5q4-3,25.5-4.5t22.5.2q1,1.8,10-.4t9.5-1q.5,1.2,4.5,0c2.67-.87,4.83-1,6.5-.3s4.5.67,8.5,0A70.1,70.1,0,0,0,344.5,2Q349,.5,349,.2Z" transform="translate(-1)"/><path class="cls-5" d="M853.8,683.5l.2,2.5-1,.2a11.33,11.33,0,0,0-3,1.8q-2,1.5-3.2-1.8l-1.3-3.2-.3.2-.2.3-1,.3-1,.2-.8,7c-.47,4.67-1.2,7.83-2.2,9.5s-1.83,5.67-2.5,12-2,11-4,14-7.67,15.67-17,38-14.67,34.83-16,37.5a18.48,18.48,0,0,1-4.7,6.2q-2.81,2.29-9.8,4.3t-11,3q-4,1-10-1.7t-8.8-12.3A68.28,68.28,0,0,1,754,780q.5-12,9-24t7.5-18.5a124.6,124.6,0,0,1-1-18q0-11.5,2.5-15a18.54,18.54,0,0,0,3.2-6.7q.79-3.3,6.6-4.6t6-2.2q.19-1,9-1t11.4-4.8q2.81-4.69,6-6t6.3-8.2q3-7,3.3-10c.13-2,1.47-3.5,4-4.5a25.79,25.79,0,0,0,5.7-3q2-1.5,3.3-6.7c.8-3.53,1.53-5.47,2.2-5.8s2.4,1.07,5.2,4.2,5.13,10,6.8,20.3S853.6,681.83,853.8,683.5Z" transform="translate(-1)"/></g></svg>