<svg id="Layer_1" data-name="Layer 1" xmlns="http://www.w3.org/2000/svg" xmlns:xlink="http://www.w3.org/1999/xlink" viewBox="0 0 716.09 595.64"><defs><style>.cls-1{fill:#242223;}.cls-2{fill:#ffd13c;}.cls-3{fill:url(#linear-gradient);}.cls-4{fill:#e59525;}.cls-5{fill:#9e812f;}.cls-6{fill:#c6802b;}.cls-7{fill:#f1ac27;}.cls-8{fill:#21231f;}.cls-9{fill:#464a43;}.cls-10{fill:#539241;}.cls-11{fill:#6cbe45;}.cls-12{fill:#fff;}.cls-13{fill:#fefefe;}.cls-14{fill:#1c1c1c;}.cls-15{fill:#8b4f56;}.cls-16{fill:#f8cf44;}.cls-17{fill:#f8c0a4;}.cls-18{fill:#343434;}.cls-19{fill:#855222;}.cls-20{fill:#925925;}.cls-21{fill:#383233;}.cls-22{fill:#f4f3f3;}.cls-23{fill:#121213;}.cls-24{fill:#8ca63c;}.cls-25{fill:#a66a29;}.cls-26{fill:#925825;}.cls-27{fill:#783f1a;}.cls-28{fill:#bc824a;}</style><linearGradient id="linear-gradient" x1="103.11" y1="291" x2="806.81" y2="291" gradientUnits="userSpaceOnUse"><stop offset="0.52" stop-color="#dce11f"/><stop offset="1" stop-color="#6cbe45"/></linearGradient></defs><title>register</title><path class="cls-1" d="M21.82-636.18" transform="translate(-90.72 23.45)"/><circle class="cls-2" cx="129.68" cy="230.83" r="129.68"/><path class="cls-3" d="M187.59,303.38c51.49-88.28,39.16-151.68,81.85-165.22,32.13-10.19,49.87,22.3,83.37,10.61,41.32-14.43,29-69,73.88-108C484.37-9.39,580.24,15.3,600.62,20.23,663.63,35.46,703,73.05,720,89.67c62.14,60.82,79.09,133.8,84.13,168.25,7.82,53.52-2,91.39-21.6,167.12-14.07,54.31-25.63,71.08-38.66,83-26.61,24.32-61.26,30.1-92.08,35.24-24,4-44.8,4.62-77.31,3.41C462.31,542.5,452.16,525.46,398.26,533c-54.26,7.63-47.67,25.43-106.86,34.11-36,5.28-101.57,14.88-145.51-23.88-31.53-27.8-46.31-72.49-42.07-111.41C109.51,379.64,145.09,376.23,187.59,303.38Z" transform="translate(-90.72 23.45)"/><path class="cls-4" d="M291.22,30.54c-1.7,14.47-3.23,27.58-4.9,41.89-7.93-7.21-13.92-15-22.72-19.42-1.85-.92-3.57-2.08-5.43-3-1.34-.64-2.91-1.67-4.29-.41s-.46,3,.13,4.31c5.6,12.81,8.69,27.34,23.59,33.78a7.8,7.8,0,0,1,5.12,6.2c-12.64-2.51-25.14-.36-37.36-4.76,9.27,8,16.18,18.91,29.72,20.11,1.91.17,4.49-.93,5.07,2.06.48,2.55-1.63,3.47-3.44,4.53-2.9,1.7-8.62,2.44-6.7,6.66,1.82,4,7.23,2.88,11.25,1.53,3.86-1.29,7.62-2.88,12.77-4.85-3.8,8.71-11.67,17.21-.19,26.21-.45-12.7,15.38-16.41,13.45-30.14,6.35,9.85,5.67,16.27-3.81,43.43,7.08-4.62,11.62-15.93,11.15-28.39-.28-7.54-1.25-14.95-5.59-21.47-.84-1.25-2.08-2.64-.66-4.11s2.87-.24,4.18.48c15.24,8.48,28.38,1.8,41.35-5.78.75-.44,1.69-1.66,1.54-2.3-.41-1.79-2.21-1.94-3.73-2.08-7.38-.67-14.71-2.25-22.39-1.14,3.1-3.69,6.08-7,10.28-8.94,1.15-.53,2.5-1.27,2.18-2.81-.44-2.13-2.25-1.55-3.74-1.53-7.08.1-13.13,4.16-20.87,5.89,2.86-7.85,9.18-9.46,14.9-11.94,2.92-1.27,8.05-1.91,7.08-5.7-1-4-5.71-4-9.88-3.35a26,26,0,0,0-12.1,4.67c-1.15.86-2.93,1.8-4.14.2s.23-2.93,1.41-3.83c4.12-3.11,8.39-6,12.49-9.16,1.52-1.17,4.57-1.84,3.7-4.3-1.05-3-4.09-1.37-6.13-1.1-5.69.75-11.16,2.44-15.42,6.54-4.73,4.55-6.3,2.48-7.11-2.87C300.67,47.09,298.84,38.62,291.22,30.54Zm3,61.15c2.85,3.66,10,3.85,8.63,11.64C297.07,101.29,294.63,97.3,294.2,91.69Zm15.06-14.26.46,0-.3.35Z" transform="translate(-90.72 23.45)"/><path class="cls-4" d="M656.24-23.45c2.74,21.51,5.22,41,7.93,62.27,11.9-10.6,20.86-22.15,34.12-28.55,2.78-1.34,5.37-3,8.17-4.33,2-.93,4.39-2.44,6.49-.55s.73,4.4-.15,6.39c-8.3,19-12.8,40.5-35.25,49.88-2.79,1.16-6.36,3-7.68,9.14,19.09-3.57,38-.23,56.46-6.61-13.92,11.72-24.24,27.89-44.71,29.5-2.88.22-6.81-1.43-7.64,3-.7,3.77,2.5,5.17,5.26,6.77,4.4,2.55,13.06,3.72,10.22,10-2.71,5.95-10.9,4.19-17,2.13-5.85-2-11.55-4.37-19.37-7.36,5.86,13,17.87,25.7.62,38.92.51-18.84-23.48-24.55-20.73-44.92-9.48,14.55-8.37,24.1,6.31,64.55-10.78-7-17.77-23.81-17.22-42.31.33-11.18,1.7-22.18,8.19-31.8,1.25-1.86,3.12-3.9.94-6.11s-4.34-.39-6.31.67c-23,12.4-42.9,2.33-62.63-9.1-1.13-.66-2.56-2.49-2.35-3.43.59-2.66,3.32-2.85,5.61-3,11.16-.91,22.22-3.16,33.85-1.42-4.72-5.51-9.28-10.46-15.65-13.4-1.75-.81-3.79-1.92-3.33-4.2.64-3.17,3.37-2.28,5.64-2.23,10.71.24,19.91,6.34,31.64,9-4.42-11.7-14-14.17-22.69-17.92-4.43-1.92-12.2-2.93-10.77-8.55,1.51-5.94,8.57-5.86,14.9-4.85,6.77,1.07,12.84,3,18.36,7.08,1.75,1.29,4.45,2.7,6.26.35s-.39-4.37-2.19-5.71c-6.26-4.67-12.76-9-19-13.76-2.32-1.75-6.95-2.78-5.66-6.42,1.55-4.43,6.17-2,9.27-1.57,8.61,1.19,16.9,3.76,23.4,9.91,7.21,6.81,9.56,3.75,10.72-4.18C642.14,1,644.81-11.53,656.24-23.45Zm-3.75,90.78c-4.28,5.4-15.09,5.6-12.92,17.17C648.26,81.55,651.89,75.65,652.49,67.33ZM629.52,46l-.7.06.46.53Z" transform="translate(-90.72 23.45)"/><path class="cls-4" d="M118.78,360.09c.13,17.89,7.64,27.63,22,28.22,13.37.56,20.36-3,22.27-23,1.64,7.63,1.07,13.6-2.42,18.86-2.57,3.87-5.74,7.23-5.29,12.38a2.29,2.29,0,0,1-2.41,2.68,3.1,3.1,0,0,1-2.79-2.6c-.45-1.85,3.06-5.55-2.41-4.9-3.56.42-7.86-1.54-10.12,3.14-1.93,4-3,11.33-7.72,9.84s-1.93-8.11-1.7-12.89-5.24-6.63-9.89-6.94c-3.24-.21-6.52.34-9.79.35-2.22,0-4.86-.31-4.36-3.39.43-2.63,2.61-4.79,5.33-3.64,7.78,3.32,6.55-.93,5.7-5.92C114.5,368.3,114.58,364.12,118.78,360.09Z" transform="translate(-90.72 23.45)"/><path class="cls-4" d="M152.54,350.22c-11.59.34-20.9,2.13-22.41,13.55-.62,4.66,1.71,9.47,8,10.94a33.59,33.59,0,0,0,0-3.54c-.6-4.87-.83-9.71,5.63-10.51,5.63-.7,8.79,2.95,9.78,7.82,1.17,5.8-1.46,10.16-7.39,11.7-8.93,2.31-18.58-3.67-19.83-12-1.75-11.62,4.37-20,15.15-20.57C144.52,347.41,147.8,347,152.54,350.22Z" transform="translate(-90.72 23.45)"/><path class="cls-4" d="M117.18,353.57A6.1,6.1,0,0,1,110.5,357c-3-.37-7.19-.46-7.65-4.42-.38-3.23,3-3.28,5.38-3.22C111.71,349.45,115.21,349.87,117.18,353.57Z" transform="translate(-90.72 23.45)"/><path class="cls-4" d="M170.8,368.31c1.91-6,1.91-6-3.82-8.74,7.72-1.31,12.25-.19,12.71,3.14C180.1,365.74,177.15,367.61,170.8,368.31Z" transform="translate(-90.72 23.45)"/><path class="cls-4" d="M176.31,387.79c.39,2.42-.54,3.76-2,3.46-3.58-.75-8-.69-9.13-5.32-.43-1.73.59-4.57,2.74-4.2A12.4,12.4,0,0,1,176.31,387.79Z" transform="translate(-90.72 23.45)"/><path class="cls-4" d="M161.21,360.48c-.09-.23-.29-.48-.24-.68.17-.77.54-.85.89-.21a.9.9,0,0,1,0,.75C161.76,360.46,161.43,360.43,161.21,360.48Z" transform="translate(-90.72 23.45)"/><path class="cls-4" d="M709.28,259.22c.14,17.9,7.65,27.64,22,28.23,13.37.56,20.36-3,22.27-23,1.64,7.63,1.07,13.6-2.43,18.86-2.57,3.87-5.73,7.23-5.28,12.37a2.29,2.29,0,0,1-2.41,2.69,3.1,3.1,0,0,1-2.79-2.6c-.45-1.86,3.06-5.55-2.41-4.9-3.56.42-7.87-1.54-10.13,3.14-1.93,4-3,11.32-7.71,9.84s-1.93-8.11-1.71-12.89-5.23-6.64-9.88-6.94c-3.24-.22-6.53.34-9.79.35-2.23,0-4.87-.32-4.36-3.4.43-2.63,2.61-4.79,5.33-3.63,7.77,3.31,6.55-.93,5.7-5.93C705,267.43,705.09,263.26,709.28,259.22Z" transform="translate(-90.72 23.45)"/><path class="cls-4" d="M743.05,249.36c-11.59.33-20.91,2.13-22.42,13.55-.61,4.66,1.71,9.47,8,10.94a33.79,33.79,0,0,0,0-3.55c-.61-4.86-.83-9.7,5.63-10.51,5.63-.7,8.79,3,9.77,7.83,1.18,5.8-1.45,10.16-7.38,11.69-8.93,2.32-18.58-3.67-19.84-12-1.74-11.62,4.37-20,15.16-20.57C735,246.55,738.31,246.13,743.05,249.36Z" transform="translate(-90.72 23.45)"/><path class="cls-4" d="M707.69,252.71a6.12,6.12,0,0,1-6.68,3.43c-3-.37-7.19-.46-7.65-4.42-.38-3.24,3-3.28,5.37-3.22C702.22,248.59,705.71,249,707.69,252.71Z" transform="translate(-90.72 23.45)"/><path class="cls-4" d="M761.31,267.45c1.91-6,1.91-6-3.82-8.75,7.72-1.3,12.25-.18,12.7,3.14C770.61,264.88,767.65,266.74,761.31,267.45Z" transform="translate(-90.72 23.45)"/><path class="cls-4" d="M766.82,286.92c.39,2.42-.54,3.77-2,3.47-3.57-.75-8-.69-9.13-5.32-.42-1.73.6-4.57,2.74-4.2A12.4,12.4,0,0,1,766.82,286.92Z" transform="translate(-90.72 23.45)"/><path class="cls-4" d="M751.72,259.61c-.09-.22-.29-.48-.25-.67.17-.78.54-.86.9-.21a.87.87,0,0,1,0,.74C752.27,259.59,751.94,259.57,751.72,259.61Z" transform="translate(-90.72 23.45)"/><path class="cls-4" d="M729.43,356.5c.09,11.65,5,18,14.33,18.39,8.71.36,13.27-1.94,14.51-15,1.07,5,.7,8.86-1.58,12.29-1.67,2.52-3.73,4.71-3.44,8.06a1.5,1.5,0,0,1-1.57,1.75,2,2,0,0,1-1.82-1.69c-.29-1.21,2-3.62-1.57-3.2-2.32.28-5.13-1-6.6,2.05-1.26,2.61-1.93,7.38-5,6.41s-1.25-5.28-1.11-8.4-3.41-4.32-6.44-4.52c-2.11-.14-4.25.22-6.37.23-1.45,0-3.17-.21-2.84-2.21.28-1.72,1.7-3.12,3.47-2.37,5.06,2.16,4.26-.61,3.71-3.86C726.65,361.84,726.7,359.13,729.43,356.5Z" transform="translate(-90.72 23.45)"/><path class="cls-4" d="M751.43,350.07c-7.55.22-13.62,1.39-14.6,8.83-.41,3,1.11,6.16,5.21,7.12a21.64,21.64,0,0,0,0-2.31c-.4-3.16-.55-6.32,3.67-6.84,3.66-.46,5.72,1.92,6.36,5.1.77,3.77-.94,6.62-4.81,7.62-5.82,1.5-12.1-2.4-12.92-7.85-1.13-7.57,2.85-13,9.87-13.4A9.89,9.89,0,0,1,751.43,350.07Z" transform="translate(-90.72 23.45)"/><path class="cls-4" d="M728.39,352.25a4,4,0,0,1-4.35,2.23c-1.94-.23-4.68-.29-5-2.87-.24-2.11,2-2.14,3.51-2.1C724.83,349.57,727.1,349.84,728.39,352.25Z" transform="translate(-90.72 23.45)"/><path class="cls-4" d="M763.33,361.86c1.24-3.89,1.24-3.89-2.49-5.7,5-.85,8-.12,8.27,2C769.38,360.18,767.46,361.4,763.33,361.86Z" transform="translate(-90.72 23.45)"/><path class="cls-4" d="M766.92,374.54c.25,1.58-.36,2.45-1.29,2.26-2.32-.49-5.21-.45-5.94-3.47-.28-1.12.39-3,1.78-2.73A8.11,8.11,0,0,1,766.92,374.54Z" transform="translate(-90.72 23.45)"/><path class="cls-4" d="M757.08,356.75c-.06-.15-.19-.31-.16-.44.11-.5.35-.56.58-.14a.6.6,0,0,1,0,.49C757.44,356.74,757.22,356.72,757.08,356.75Z" transform="translate(-90.72 23.45)"/><path class="cls-5" d="M726,125.62c11.15,21.92,16.19,42.33,2,64.31,21-9.83,41.46-13.12,67.48-9.89-35.2,20.85-62.15,50.78-106,38.53,4.23-8,15.45-5.8,19.76-14.84l-16.86,4.89c8.1-15.55,21.37-23.79,26-37.79C723.07,156.63,722.84,141.8,726,125.62Z" transform="translate(-90.72 23.45)"/><path class="cls-5" d="M678.1,229.41c9.56,11.9,23.36,20,30.46,34.15,6.78,13.52,16,25.53,24.58,38.21-22.43-13.69-55.91-13.86-58.82-52.36-10.1,12.37-8.07,26.36-12.49,38.2-17.46-13.43-15.17-49.29,3.31-59.27,5.26-2.83,8.75,1,13.09,1.24Z" transform="translate(-90.72 23.45)"/><path class="cls-5" d="M634.35,171.05c.27-10.79.39-21.59.88-32.37.16-3.58-1.61-9.18,5.66-8,9.89,12.28,17.85,25.56,20.92,44.41,8.34-14.5,6.2-28.53,10-44.16,7.41,13.89,7.8,26,9.5,37.71-.47,6.07-.81,12.17-1.45,18.25-1.12,10.73-1.7,22-16.93,21.85C650.52,198.37,639.3,187.08,634.35,171.05Z" transform="translate(-90.72 23.45)"/><path class="cls-5" d="M678.23,229.58c41.92-7.45,81.86-6.65,116.35,29.16-30.41.39-58.78,8.51-84.26-12.06-9.39-7.58-20-14.24-32.22-17.27Z" transform="translate(-90.72 23.45)"/><path class="cls-5" d="M657.38,219.31c2,1.28,8.63,1.2,5,4-11.76,9.18-16.39,23.23-25.75,33.85-7.55,8.58-15.93,14.34-29.35,7.92C626,254.63,621.61,227.62,643,220Z" transform="translate(-90.72 23.45)"/><path class="cls-5" d="M687.61,181.54c4.43-16.33,6.06-32.95,4.58-54.73,11.47,11.63,20.39,19.73,18.25,34-2.61,17.38-10.18,31.95-25.78,41.37C683.89,195.05,685.51,188.26,687.61,181.54Z" transform="translate(-90.72 23.45)"/><path class="cls-6" d="M657.38,219.31,643,220c-28.73-1.57-46.89,15.39-63,36-2.63,3.35-2.77,8.82-8.23,10.08,4.27-31.6,40-53,91.15-54.9l-.07-.06C662.57,214.83,660.47,217.39,657.38,219.31Z" transform="translate(-90.72 23.45)"/><path class="cls-6" d="M687.61,181.54c-2.1,6.72-3.72,13.51-3,20.64l0-.34c-1.63,1.46-.82,2.77.25,4.06-5.73,8.7-13.95,6.69-22.07,5.15l.07.06q0-1.17,0-2.34c15.24.16,15.82-11.12,16.94-21.85.64-6.08,1-12.18,1.45-18.25C684.23,172.55,683,178.5,687.61,181.54Z" transform="translate(-90.72 23.45)"/><path class="cls-5" d="M675.87,323.11c8.75,17.2,12.7,33.22,1.58,50.47,16.45-7.72,32.53-10.29,52.95-7.76-27.62,16.36-48.77,39.85-83.2,30.24,3.32-6.26,12.13-4.55,15.51-11.64l-13.23,3.83c6.35-12.2,16.77-18.67,20.42-29.66S673.43,335.81,675.87,323.11Z" transform="translate(-90.72 23.45)"/><path class="cls-5" d="M638.32,404.56c7.5,9.35,18.33,15.69,23.9,26.81,5.32,10.61,12.52,20,19.29,30-17.6-10.74-43.88-10.87-46.16-41.09-7.93,9.71-6.33,20.69-9.8,30-13.71-10.54-11.9-38.69,2.6-46.51,4.13-2.23,6.86.79,10.27,1Z" transform="translate(-90.72 23.45)"/><path class="cls-5" d="M604,358.77c.21-8.47.31-16.95.69-25.41.13-2.81-1.26-7.2,4.45-6.25,7.76,9.63,14,20.05,16.41,34.85,6.55-11.38,4.86-22.39,7.82-34.65,5.83,10.89,6.13,20.38,7.46,29.58-.37,4.77-.63,9.56-1.13,14.33-.88,8.42-1.34,17.27-13.3,17.15C616.67,380.2,607.86,371.35,604,358.77Z" transform="translate(-90.72 23.45)"/><path class="cls-5" d="M638.42,404.7c32.9-5.85,64.24-5.22,91.31,22.88-23.87.31-46.13,6.69-66.13-9.46-7.36-5.95-15.71-11.18-25.28-13.56Z" transform="translate(-90.72 23.45)"/><path class="cls-5" d="M622.06,396.64c1.53,1,6.77.94,4,3.13-9.24,7.21-12.87,18.23-20.21,26.57-5.93,6.73-12.5,11.25-23,6.21,14.62-8.19,11.21-29.39,28-35.39Z" transform="translate(-90.72 23.45)"/><path class="cls-5" d="M645.78,367c3.48-12.81,4.75-25.86,3.59-43,9,9.13,16,15.49,14.33,26.69-2.05,13.64-8,25.07-20.24,32.46C642.86,377.6,644.13,372.27,645.78,367Z" transform="translate(-90.72 23.45)"/><path class="cls-6" d="M622.06,396.64l-11.27.52c-22.55-1.23-36.8,12.08-49.48,28.22-2.07,2.63-2.18,6.92-6.46,7.91,3.35-24.8,31.39-41.62,71.53-43.08l0-.06C626.13,393.12,624.48,395.13,622.06,396.64Z" transform="translate(-90.72 23.45)"/><path class="cls-6" d="M645.78,367c-1.65,5.27-2.92,10.6-2.32,16.19v-.26c-1.28,1.15-.64,2.17.2,3.19-4.5,6.82-10.95,5.25-17.32,4l0,.06c0-.62,0-1.23,0-1.84,12,.12,12.42-8.73,13.3-17.15.5-4.77.76-9.56,1.13-14.33C643.13,359.94,642.14,364.61,645.78,367Z" transform="translate(-90.72 23.45)"/><path class="cls-5" d="M191.72,408.91C206.11,389,222,375.15,248,377.69c-18.34-14.14-30.63-30.85-39.67-55.47,34.64,21.76,73.59,32,82.78,76.64-9-.12-12.23-11.09-22.24-10.78l12.07,12.75c-17.54-.08-30.94-8.11-45.53-5.85C220.61,397.27,207.53,404.27,191.72,408.91Z" transform="translate(-90.72 23.45)"/><path class="cls-5" d="M305.9,404C312.11,390,313,374,322.33,361.24c8.92-12.21,15.4-25.85,22.72-39.33-1.9,26.21,13.27,56-19.63,76.26,15.62,3.32,27.13-4.89,39.68-6.37-4,21.67-36.89,36-54.21,24.17-4.93-3.38-3.11-8.24-4.89-12.21Z" transform="translate(-90.72 23.45)"/><path class="cls-5" d="M274,469.57c-9.72,4.7-19.37,9.53-29.18,14-3.26,1.49-7.43,5.63-9.68-1.39,6.39-14.41,14.56-27.56,29.92-38.92-16.71-.79-28.21,7.55-43.83,11.34,9-12.95,19.52-18.82,29.18-25.7,5.62-2.36,11.2-4.85,16.89-7.07,10.06-3.91,20.35-8.55,27.18,5.06C290.92,442.69,286,457.83,274,469.57Z" transform="translate(-90.72 23.45)"/><path class="cls-5" d="M306,403.76C280.19,369.9,262.62,334,278.68,287c14.27,26.86,34.47,48.36,27.83,80.44-2.44,11.81-3.5,24.32-.61,36.55Z" transform="translate(-90.72 23.45)"/><path class="cls-5" d="M306.4,427c.25-2.31-2.88-8.21,1.25-6.31,13.54,6.27,28.15,3.95,41.88,7.41,11.08,2.79,20,7.6,20.47,22.48-17.8-11.79-39.83,4.43-56.43-11.12Q310,433.25,306.4,427Z" transform="translate(-90.72 23.45)"/><path class="cls-5" d="M259,417.41c-16.55,3.53-32.07,9.69-50.76,21,5.09-15.52,8.21-27.16,21.88-31.78,16.64-5.63,33.06-5.57,48.58,4C272.7,414.54,265.92,416.2,259,417.41Z" transform="translate(-90.72 23.45)"/><path class="cls-6" d="M306.4,427q3.6,6.24,7.17,12.46c11.75,26.27,35.14,34.66,60.82,39.62,4.19.8,9.11-1.58,12.73,2.7-30.05,10.67-65.46-11.29-90.52-55.92l0,.09C300,424.44,303.29,425.14,306.4,427Z" transform="translate(-90.72 23.45)"/><path class="cls-6" d="M259,417.41c6.93-1.21,13.71-2.87,19.7-6.82l-.29.17c2,.78,2.83-.54,3.49-2.08,10.36,1.11,12.34,9.34,14.68,17.27l0-.09c-.69.37-1.39.73-2.09,1.07-6.83-13.62-17.12-9-27.18-5.07-5.69,2.22-11.27,4.71-16.89,7.07C252.54,424.53,258.4,422.93,259,417.41Z" transform="translate(-90.72 23.45)"/><path class="cls-7" d="M341,228.9c-4.5,13.77-11.11,22-23.23,25.17C303,257.89,294,248.8,297.21,232.29c2.45-12.4,6.46-24.38,13.12-35.12a54.5,54.5,0,0,0,7.06-16.09c5.3,10,3.56,21,4.77,31.6,1.46,12.76-8.08,19.21-15.35,27.46C318.45,238.4,329.4,236,341,228.9Z" transform="translate(-90.72 23.45)"/><path class="cls-7" d="M254.81,310l-5.22-4.41c2.37-10.36,6.23-19.7,15.31-26a27.32,27.32,0,0,0,7.73-8.64c-11.39,4.52-22,10.59-35.68,14.69,11.25-19,27.49-26.45,45.63-31.11-3,5.49,5,7.54,3.88,14.21C283,288.71,272.87,302.21,254.81,310Z" transform="translate(-90.72 23.45)"/><path class="cls-7" d="M266.31,157.41c21.56,23.49,30.47,50.61,25.06,82.82C266.3,208.48,257.43,179,266.31,157.41Z" transform="translate(-90.72 23.45)"/><path class="cls-7" d="M230.33,196.57c4.79-3,7.61,2.29,11.25,3.45,16.8,5.32,29.79,16.28,38.82,31.83,1.15,2,3.14,4.73.84,6.68s-4.56-.66-6.48-1.9c-4.26-2.74-7.47-7.62-13.48-6.54h0c-2.86-3.79-7.55-4.79-11.32-5.21-8.39-.94-11.87-10.6-20.25-10.79C229.93,208.24,236.25,202.72,230.33,196.57Z" transform="translate(-90.72 23.45)"/><path class="cls-7" d="M261.28,230.09c2.4,5.87,9.48,7.11,13.78,14.29-12.3-4.32-23-3.51-33.69-2.43-10.47,1.06-18.78,9.23-30,10.2.54-6.63,4.51-9.29,8.77-11.52,2.38-1.25,5.57-1.52,4.33-5.58l.07.11c6.61-2.29,12.87-5.26,20.07-6.25,5.87-.82,11,3.77,16.63,1.17Z" transform="translate(-90.72 23.45)"/><path class="cls-7" d="M254.25,259.43c-7.18,1.59-16.4,4.43-23.65,11.57-1.47,1.45-3.32,3.36-5.46,1.33-1.93-1.84-.54-4,.24-6,5.17-13.51,21.65-22.94,36.49-19.62,4.7,1,13.07-1.35,13.53,4.2.39,4.84-8.32,3.79-12.76,5.94C260.75,257.77,258.59,258.13,254.25,259.43Z" transform="translate(-90.72 23.45)"/><path class="cls-7" d="M346,269.71c-.16,1.8.14,3.37-.49,4a3.32,3.32,0,0,1-3.22.16c-6.51-4.07-12.77-2-19.28-.12a20.87,20.87,0,0,1-25-11.69c-1.06-2.32-2.95-6.5,2.33-4.92,10.35,3.1,21,1.37,31.41,3.41C338,261.83,341.46,266.36,346,269.71Z" transform="translate(-90.72 23.45)"/><rect class="cls-8" x="235.41" y="99.42" width="314.93" height="439.26" rx="48.94"/><rect class="cls-9" x="224.73" y="99.42" width="314.93" height="439.26" rx="48.94"/><rect class="cls-10" x="258.13" y="255.72" width="60.91" height="60.91"/><rect class="cls-11" x="288.59" y="150.62" width="187.23" height="29.34" rx="14.67"/><rect class="cls-11" x="265.25" y="191.64" width="233.89" height="29.34" rx="14.67"/><rect class="cls-11" x="265.25" y="249.99" width="60.91" height="60.91"/><path class="cls-12" d="M362.72,254.54,379.8,272.4c5.1-5.68,12.79-13.84,22.77-23,14-12.89,25-21,24.84-21.22s-8.84,5.74-47.49,34.15Z" transform="translate(-90.72 23.45)"/><rect class="cls-10" x="256.43" y="357.1" width="60.91" height="60.91"/><rect class="cls-11" x="263.55" y="351.37" width="60.91" height="60.91"/><path class="cls-12" d="M361,355.92l17.08,17.86c5.11-5.68,12.8-13.84,22.77-23,14-12.89,25.05-20.95,24.85-21.22s-8.84,5.74-47.5,34.15Z" transform="translate(-90.72 23.45)"/><rect class="cls-11" x="348.07" y="257.13" width="137.56" height="19.81" rx="9.91"/><rect class="cls-11" x="348.07" y="285.4" width="149.51" height="19.81" rx="9.91"/><rect class="cls-11" x="347.78" y="363.51" width="137.56" height="19.81" rx="9.91"/><rect class="cls-11" x="347.78" y="391.78" width="149.51" height="19.81" rx="9.91"/><path class="cls-11" d="M645,503.49a.92.92,0,0,0-.26.44,1,1,0,0,1,.27-.39S645,503.51,645,503.49ZM395.07,320.15h0l.13-.07Z" transform="translate(-90.72 23.45)"/><path class="cls-13" d="M240.36,199.69c-.24,1.39.56,2,1.64,2.76,4.84,3.3,9.67,6.64,14.31,10.21,2,1.52,3.67,1.11,5.58.35l.55.12c0,.29.05.59.08.88a11.66,11.66,0,0,0,.55,3.52c.05.49.09,1,.14,1.48-.47-.43-.95-.85-1.42-1.3-2.11-2-2.11-2-3.25.64-1.28,3-1.25,3,1.07,5.25.95,1,2.11,1.66,2.38,3.29,1.4,8.45,2.94,16.87,4.47,25.3,1.43,7.9,2.93,15.79,4.35,23.69,1.83,10.18,3.61,20.38,5.41,30.57a3,3,0,0,0,.7,1.61c2,2.08,4.08,4.14,6.09,6.24.51.53.63.44,1-.16.58-.95.58-2.27,1.76-2.83,0,.16,0,.33,0,.49-.12,1.32.61,2.76-.24,3.95a11.79,11.79,0,0,1-5.6,4.48c-3.42,1.22-6.93,1-10.4.55-4.54-.61-9-1.49-13.58-2.14-1.57-.22-1.66-.71-1.1-2.11a178.07,178.07,0,0,0,8.76-27A83.44,83.44,0,0,0,265.3,263a80.6,80.6,0,0,0-6.93-24.78c-5.46-12.26-12.49-23.64-19.45-35.06-.53-.88-.77-1.52.19-2.17C239.63,200.64,239.74,199.92,240.36,199.69Z" transform="translate(-90.72 23.45)"/><path class="cls-14" d="M285.25,136.69l.09-.08-.09.08Z" transform="translate(-90.72 23.45)"/><path class="cls-11" d="M513.51,400.83a1,1,0,0,0-.25.44,1,1,0,0,1,.27-.39Zm-211-121.22c2.44-.87,4.94-1.82,7.49-2.88l.82-.35V273.8c0-1.62,0-3.24,0-4.86-.47-.49-1.05-.27-1.6-.26h0c.11,1.54.82,3,.54,4.61a.5.5,0,0,1,0,.12,11.22,11.22,0,0,1-.94-3.68c-.72-3.42-1.37-6.84-2.05-10.26a1,1,0,0,1,0-.54h0a.66.66,0,0,1,.14-.2v-.07c.6-1.14-2.56,1-4,1-.42,0-.91.37-2,.58l-4.75,1L287.86,263c-.42.09-.86.09-1.27.22-1.57.5-2.07-.27-2-1.69l-1.29-4.5a.17.17,0,0,1-.06-.24,3,3,0,0,1-.58-1.7l-.09-.32a4.82,4.82,0,0,1-.72-2.19h0a2.16,2.16,0,0,1-.5-1.4.2.2,0,0,1-.06-.26,3.39,3.39,0,0,1-.58-1.68.25.25,0,0,1-.06-.3,5,5,0,0,1-.72-2.29v-.1a35.1,35.1,0,0,1-2-5.72c-1.69-4.76-3.19-9.57-4.64-14.41-.48-1.58-1-3.28-2.77-4.14a35.53,35.53,0,0,1-6.15-4.16c-.38,0-.69-.14-.76-.57l-.52.11h0c0,.46.08.9.12,1.35,0,0,0,.09,0,.14a2.49,2.49,0,0,1,.64,1.38l.11.18h0a15.06,15.06,0,0,1,2.32,5l0,.14a66.92,66.92,0,0,1,5.22,10.31c.64,1.5,1.28,3,1.91,4.51,0,.14,0,.29.08.43v0l.06.11A75.45,75.45,0,0,1,278,252.89a77,77,0,0,1,3.21,13.82h0l.05.42a74.25,74.25,0,0,1,1.91,9.45c.77,4.22,1.35,8.48,1.86,12.74.29,2.4.41,4.82.67,7.24.3,2.89.1,5.83.67,8.7.42,2.1-.22,4.06-.59,6.06h0s0,.06,0,.09,0,.32,0,.49c-.1,1.1.4,2.3.06,3.35h0a2,2,0,0,1-.29.59,11.81,11.81,0,0,1-5.6,4.49c-3.42,1.21-6.93,1-10.41.55-4.53-.62-9-1.49-13.57-2.14-1.4-.2-1.62-.61-1.26-1.69a.41.41,0,0,1,0-.08,2.92,2.92,0,0,1,.13-.34c.89-2.24,1.76-4.48,2.59-6.73.41-1.11.82-2.23,1.21-3.34s.76-2.17,1.12-3.26.73-2.25,1.08-3.39.68-2.26,1-3.4q1-3.42,1.74-6.9a83.14,83.14,0,0,0,1.72-26.54,80.28,80.28,0,0,0-6.94-24.77c-5.45-12.26-12.48-23.64-19.44-35.07-.35-.57-.57-1-.41-1.47,0,0,0,0,0-.06a1.58,1.58,0,0,1,.59-.64.13.13,0,0,0,0-.06c-.07-.69-.42-.68-.88-.27s-1.69,1.72-1.69,1.72a15.33,15.33,0,0,0-2,2.21c0,.36-5.75,4.44-6.82,4.35l-4.86.92a14.93,14.93,0,0,0-2.52.64c-1.69,1-2.94,1.41-4,2.19a4,4,0,0,0-1.06.6,32.41,32.41,0,0,0-6.1,6.6c-.61,1-1.15,1.85-1.59,2.65l-2.2,5.17a35,35,0,0,1-1.4,3.48c-.41,1.38-.64,2.53-.9,3.66-.75,2.82-1.19,5.47-2,8.47a18.79,18.79,0,0,0-.35,3c-.8,3.5-1.21,7.06-1.91,10.57-.25,1.21-.5,2.28-.71,3.65s-.37,2.37-.58,3.65c-.34,3-.6,5.54-.84,8.32a57.73,57.73,0,0,0-1.08,7.74c-.17,3.08-.87,6.1-.77,9.2,0,.74,0,1.49,0,2.24.16.27.3.56.47.82,1.52,2.26,3.55,4.15,4.87,6.56l.72.63h0a11.77,11.77,0,0,1,1.8,2.4l7.7,10.09c.38.51,0,.89-.26,1.28.06.38.31.81-.25,1a.39.39,0,0,1,0,.26,4.09,4.09,0,0,1-.61,2.71c-.64,2.09-1.36,4.17-1.91,6.29-.66,2.54-1.18,5.11-2,7.59l.08.2s0,.06-.06.1v0c.09.31.07.57-.3.68a.9.9,0,0,0,0,.28,6.76,6.76,0,0,1-1.26,4.28,12.46,12.46,0,0,1-1,3.84c-.12,1.49-.19,3-1.29,4.19a4.42,4.42,0,0,1,0,.81c-.37,2.17-.36,2.09,1.94,2.78,4.23,1.25,8.43,2.6,12.64,3.92,2.37.07,4.48,1.17,6.73,1.73.55.13.51.61.5,1,0,.69,0,1.38,0,2.07.17.05.29.14.26.35a45.72,45.72,0,0,1,.69,7.47c0,.11,0,.21,0,.32l-.06,1.62c.77,6.49,1.89,13,2,19.51.6,2.59.54,1.7.6,2.59-.27,4.45,0,5.45.77,8.1a32.14,32.14,0,0,1,.55,5.87,67.16,67.16,0,0,1,0,9.41,25.06,25.06,0,0,1-.38,5.19c0,.32-.09.64-.13,1a1.7,1.7,0,0,1,0,1.33c0,.33,0,.65-.08,1a50,50,0,0,1-.41,7.13c0,.32-.06.65-.1,1a1.88,1.88,0,0,1-.11,1.32c0,.87,0,1.73,0,2.6a22.06,22.06,0,0,1-.29,5.68,31,31,0,0,1-.13,4.72c-.36,3.35-.07,6.71-.25,10.07v8.11l.24,14.33q.06,3.24.1,6.47h0c.53,2.69.26,5.41.3,8.12,0,1,0,1.95,0,2.92a6.62,6.62,0,0,1,0,2.39l.12,1.52c0,.21,0,.42,0,.62,0,.55,0,1.1.05,1.64.36,3.94.46,7.89.45,11.84a4.64,4.64,0,0,0,.11.76c.94,2.84,2.31,5.53,2.75,8.52.84,1.77.62,2.22,1.24,3.25,0,.41.37.82.41,1.22,1,1.2-.16,2-.59,2.9l0,.1a12.28,12.28,0,0,1-1.34,2.55,1.84,1.84,0,0,1,0,.62,14.27,14.27,0,0,0,.63,10.9c.74.91.71,2.1,1.16,3.12.65,1.67.76,3.69,2.76,4.52a33.31,33.31,0,0,0,4.38,1.63,58,58,0,0,0,12.62,2c5.38.16,7.23-2.09,6-7.34-.67-2.92-2.18-5.52-3.32-8.26-1.78-4.28-3.91-8.44-4.12-13.22-.29-6.37-.64-12.75-.89-19.13-.72-18-.42-36,0-54.06a3.68,3.68,0,0,1,.75-2.24c1.85-2.53,3.1-5.26,2.78-8.56a31.69,31.69,0,0,1,0-5.68,294.3,294.3,0,0,1,4.93-32.5c.69-3.57,1.44-7.12,2.18-10.71.53.21.55.56.66.86a145.91,145.91,0,0,1,6.15,23c1.24,6.59,3.5,13,2.94,19.91-.5,6.09-.94,12.18-1.45,18.27-.46,5.54-1,11.08-1.47,16.62q-.58,6.78-1.13,13.57-.9,10.91-1.8,21.81c-.38,4.42-.8,8.83-1.17,13.25-.1,1.25-1.25,1.95-1.42,3.21-.65,5-.81,9.92-1.07,14.88,0,.92.36,1.25,1.16,1.38,2.13.35,4.26.72,6.38,1.08l6.17.61,2.27-.16,1.63-.17.3-.1c.89-.13,1.8-1.9,2.65,0l.31.09a9.38,9.38,0,0,1,2.74,1.54h.11l.07.09a1.44,1.44,0,0,1,1,.51l.29.13a1.81,1.81,0,0,1,1.18.55l.12,0c.29.53,1.15-.08,1.34.67,2.39.14,4.81-.29,7.19.29.26-.26.52-.52.82,0,.79-.61,1.71-.25,2.56-.36,2.24-.44,4.49-.12,6.74-.22,3.69-.16,7.42,0,10.9-1.6a16.65,16.65,0,0,0,1.74-1.37c1-1,.7-2.06-.64-2.6-4-1.62-8.32-2.08-12.36-3.5-1.28-.44-2.74-.5-3.75-1.59l-.58-.06c-1.63,0-2.4-1.26-3.39-2.21-1.59-.85-2.61-2.3-3.79-3.59l-.39-.33c-1.58-1.82-3.16-3.63-4.73-5.45a4.8,4.8,0,0,0-.71-.88c-2.62-1.87-2.69-4.51-2.19-7.31.55-3.07.62-6.2.88-9.3.52-6.27.78-12.55,1.59-18.8.38-2.88.51-5.79.71-8.69.29-4.34.81-8.66,1.22-13,.51-5.35,1.17-10.68,2.07-16a95.79,95.79,0,0,1,2.05-9.48c.11-.41.22-.82.34-1.22a36.27,36.27,0,0,0,1.08-8.75,140.55,140.55,0,0,0,0-15.9c-.26-3.94,0-7.87-.44-11.8a33.12,33.12,0,0,1-.12-4.13c.14-6.81-.61-13.58-.75-20.38a112.81,112.81,0,0,0-.81-14.34,1,1,0,0,1,0-.53c.14-.31.5-.38.94-.38,1.19,0,2.39-.05,3.57,0,.74,0,1.11-.19,1.22-.65,0,0,0,0,0,0a1.9,1.9,0,0,0,0-.68c-.34-2.82-.7-5.65-1-8.48-.42-3.41-.82-6.82-1.23-10.23q-.71-6-1.43-12-.74-6.24-1.49-12.48c-.44-3.58-.92-7.14-1.36-10.71s-.83-6.83-1.24-10.24c-.37-3.15-.64-6.31-1.15-9.43a2,2,0,0,1,0-1.07,1.38,1.38,0,0,1,1-.75l5.33-1.65,5.68-1.73.11,0m-42.24,55.32h0a2.5,2.5,0,0,1-.39.67c-2.74,4.56-6.31,7.82-12.06,7.61-2.06-.07-4.12,0-6.17-.14-1.59-.09-2.56-1.07-2.09-2.48a0,0,0,0,1,0,0,.88.88,0,0,1,.05-.15c0-.12.09-.23.13-.35a.78.78,0,0,0,0-.14c.76-2.48-.67-4.12-2-5.89l-.4-.5c-1.84,1.53-1.84,1.54-3.86-.09-.8-.64-1.56-1.32-2.48-2.1l.07-.06c2.61-2.21,5.16-4.36,7.72-6.5.66-.56,1.32-1.12,2-1.64s1.31-1.68,2-1.42a17.85,17.85,0,0,1,3.37,2.17.2.2,0,0,1,.1.23h0a1.94,1.94,0,0,1-.13.3h0c-.05.13-.07.24.11.32l.07,0c.74.62,1.52,1.2,2.23,1.85a9.5,9.5,0,0,0,4.89,2.81c2.87.52,4.63,3,6.62,5A.48.48,0,0,1,259.77,335.12Zm3.83-117.63h0l.14-.06Z" transform="translate(-90.72 23.45)"/><path class="cls-15" d="M275.48,178.28l0,.61a1.43,1.43,0,0,1,.07.66,1.77,1.77,0,0,1-.66,1c-1.06.92.06,5.56-.23,7.08-.43,2.28-.33,4.65-1.12,6.87l-.63,1.34c-.63,1.08-6.51,10.37-6.51,10.37-.15.45-.29.63-.65.63h0a9.25,9.25,0,0,0-1.91.26c-.49.18-1.35.2-1.27,1,.16,1.69-.82,3.21-.65,4.89-1.91.76-3.6,1.17-5.58-.35-4.64-3.57-9.47-6.91-14.31-10.21-1.08-.75-1.88-1.37-1.64-2.76v-6.15c.22-1.64-.23-3.33.53-4.93a1.6,1.6,0,0,0-.36-1.51c-2.61-3.87-3.2-8.19-2.75-12.72h0a2.73,2.73,0,0,0,1.32-1.3c2.62.06,3.94,1,4.79,3.5a28.21,28.21,0,0,1,.7,4.29c.09.46-.09,1.11.61,1.09s.55-.71.63-1.12c.38-2,.65-4.05,1.07-6.05.73-3.48,1.39-7,3.23-10.12A6.77,6.77,0,0,1,256,161c5.29-.17,10.36,1.29,15.5,2.16a4.12,4.12,0,0,1,3,2.79,19.31,19.31,0,0,1,1.13,5.52Z" transform="translate(-90.72 23.45)"/><path class="cls-14" d="M275.61,171.47a19.31,19.31,0,0,0-1.13-5.52,4.12,4.12,0,0,0-3-2.79c-5.14-.87-10.21-2.33-15.5-2.16a6.77,6.77,0,0,0-5.9,3.67c-1.84,3.14-2.5,6.64-3.23,10.12-.42,2-.69,4-1.07,6.05-.08.41,0,1.11-.63,1.12s-.52-.63-.61-1.09a28.21,28.21,0,0,0-.7-4.29c-.85-2.48-2.17-3.44-4.79-3.5,0-2,0-3.9,0-5.85.12-2.36,1.21-4.43,2-6.6a1.68,1.68,0,0,0,.54-1.52c1.75-2.68,3.19-5.56,6-7.44,3.65-2.43,7.72-3.47,11.92-4.23a15,15,0,0,1,7.43.64l2.6,1.93.27.35,1,1,2.09,3.48.46.74.09,0-.09,0a4,4,0,0,0,.77,1.81l0,0a1.79,1.79,0,0,0,.53,1.18l0,.09.07,0a9.37,9.37,0,0,0,1.26,3.09.09.09,0,0,0,.05.15l.34,1v.34c.25.75.5,1.5.76,2.25,0,.51.06,1,.1,1.53a13.24,13.24,0,0,0-.54,3.36c-.57,1-.34,2.15-.69,3.19C275.4,173.05,276,172.15,275.61,171.47Z" transform="translate(-90.72 23.45)"/><path class="cls-16" d="M285.76,311.31c-1.18.56-1.18,1.88-1.76,2.83-.36.6-.48.69-1,.16-2-2.1-4.06-4.16-6.09-6.24a3,3,0,0,1-.7-1.61c-1.8-10.19-3.58-20.39-5.41-30.57-1.42-7.9-2.92-15.79-4.35-23.69-1.53-8.43-3.07-16.85-4.47-25.3-.27-1.63-1.43-2.34-2.38-3.29-2.32-2.3-2.35-2.26-1.07-5.25,1.14-2.65,1.14-2.65,3.25-.64.47.45.95.87,1.42,1.3a2.49,2.49,0,0,1,.64,1.38c.57,1.9.6,4,2.46,5.34A66.49,66.49,0,0,1,271.53,236c.64,1.5,1.28,3,1.91,4.51,0,.15.05.29.08.44v0a3.41,3.41,0,0,0,.1.64A264.76,264.76,0,0,1,281.25,267a74.4,74.4,0,0,1,1.91,9.46c.77,4.21,1.35,8.47,1.86,12.73.29,2.4.42,4.83.67,7.24.3,2.89.1,5.83.67,8.7C286.78,307.3,286.12,309.28,285.76,311.31Z" transform="translate(-90.72 23.45)"/><path class="cls-15" d="M332.66,256.3a23.45,23.45,0,0,1-2.06,2.05c-.66.59-1.73.91-1,2.17.18.29-.21.69-.49,1-3.47,3.2-7.11,6.14-11.85,7.25a15,15,0,0,1-5.31,0,2,2,0,0,0-1.1.09c-.48-.5-1.07-.26-1.64-.25a72.25,72.25,0,0,0-2.3-10,9.62,9.62,0,0,1,.38-2c0-.11.07-.22.1-.33l.13-.34a21.27,21.27,0,0,1,1.68-3.38,16.07,16.07,0,0,0,1.28-2.47,1.72,1.72,0,0,0,.07-.21,5.19,5.19,0,0,0,.29-1.43,3.81,3.81,0,0,0,.62-1.8,3.41,3.41,0,0,1,.28-.7h0a2.57,2.57,0,0,1,.22-.32l.08-.09.08-.08.11-.1.1-.07,0,0a1,1,0,0,1,.17-.1h0l.14,0,.11,0h0l.06,0h.35a1.67,1.67,0,0,1,.31,0c1.24.19.86,1.34.77,2.13-.17,1.49-.47,3-.75,4.45-.4,2.15.54,3.06,2.77,2.75s4-2.05,6-3c.69-.32,1.36-1.58,2.18-.57s-.4,1.58-1,2.23c-1.09,1.29-2.91,1.86-3.69,3.8,2.4-.81,4.13-2.33,6.05-3.53,1.18-.73,2.28-1.61,3.44-2.4.58-.4,1.27-.84,1.9-.23a1.42,1.42,0,0,1-.09,2.06,21.18,21.18,0,0,1-2.31,2.23c-1.35,1.15-2.75,2.25-4.1,3.41l-.41.33a1.07,1.07,0,0,0-.16.14l-.08.08a.52.52,0,0,0-.1.11l-.09.13h0a.66.66,0,0,0-.09.19l0,.12a.86.86,0,0,0,0,.23v.06h0l-.44.15a.89.89,0,0,0,.09.12l.38-.23a15.32,15.32,0,0,0,5.42-4,5.75,5.75,0,0,1,1.94-1.43,1.39,1.39,0,0,1,1.75.44C333.41,255.45,333,255.92,332.66,256.3Z" transform="translate(-90.72 23.45)"/><path class="cls-15" d="M245.89,324.9c.75.61,1.52,1.19,2.23,1.84a9.51,9.51,0,0,0,4.89,2.82c2.87.52,4.63,3,6.62,5,.43.42,0,.82-.23,1.15-2.74,4.57-6.31,7.82-12.06,7.62-2.06-.08-4.12,0-6.17-.15-1.66-.09-2.63-1.15-2-2.65,1.13-2.75-.4-4.5-1.83-6.37l-.41-.51c1.17-1.18,2.33-2.39,3.52-3.55C242.22,328.33,243.79,326.33,245.89,324.9Z" transform="translate(-90.72 23.45)"/><path class="cls-13" d="M245.89,324.9c-2.1,1.43-3.67,3.43-5.47,5.19-1.19,1.16-2.35,2.37-3.52,3.55-1.83,1.54-1.84,1.55-3.86-.08-.79-.65-1.56-1.33-2.48-2.11l7.79-6.56c.66-.55,1.32-1.12,2-1.64s1.31-1.67,2-1.42a17.59,17.59,0,0,1,3.37,2.18C246.14,324.27,245.31,324.7,245.89,324.9Z" transform="translate(-90.72 23.45)"/><path class="cls-17" d="M281.25,267a264.76,264.76,0,0,0-7.64-25.44,3.41,3.41,0,0,1-.1-.64A73.62,73.62,0,0,1,278,252.8,75.28,75.28,0,0,1,281.25,267Z" transform="translate(-90.72 23.45)"/><path class="cls-13" d="M307,258.63a72.25,72.25,0,0,1,2.3,10c.11,1.57.86,3.07.53,4.72a11,11,0,0,1-1-3.68c-.71-3.41-1.36-6.84-2-10.26A.76.76,0,0,1,307,258.63Z" transform="translate(-90.72 23.45)"/><path class="cls-17" d="M266.31,225.73c-1.86-1.3-1.89-3.44-2.46-5.34A15.64,15.64,0,0,1,266.31,225.73Z" transform="translate(-90.72 23.45)"/><path class="cls-17" d="M273.52,241c0-.15,0-.29-.08-.44Z" transform="translate(-90.72 23.45)"/><path class="cls-18" d="M530.73,440.41a.91.91,0,0,1-.11-.22s.06-.07.09-.1Z" transform="translate(-90.72 23.45)"/><path class="cls-13" d="M323.87,259.82l-.38.23a.89.89,0,0,1-.09-.12l.44-.15h0v0Z" transform="translate(-90.72 23.45)"/><path class="cls-1" d="M258,546.19c-.69-2.92-2.23-5.52-3.4-8.26-1.83-4.28-4-8.43-4.24-13.2l-19.64,4.38a16.06,16.06,0,0,1-1,1.66,2.15,2.15,0,0,1,0,.62,13.92,13.92,0,0,0,.64,10.9c.76.91.73,2.1,1.19,3.12.67,1.67.78,3.69,2.83,4.52a34.82,34.82,0,0,0,4.49,1.63,61,61,0,0,0,12.94,2C257.36,553.69,259.24,551.44,258,546.19Z" transform="translate(-90.72 23.45)"/><path class="cls-1" d="M317.74,537.78c-4.06-1.71-8.44-2.2-12.55-3.69-1.3-.47-2.78-.53-3.81-1.68l-.59-.06c-1.64,0-2.42-1.34-3.44-2.33-1.6-.9-2.64-2.43-3.84-3.79l-.39-.35-3-3.56L260.91,522c-.64,5.12-.79,10.27-1.06,15.41a1.21,1.21,0,0,0,1.18,1.46l6.48,1.14,6.25.64,2.3-.17,1.66-.18.31-.11c.9-.13,1.82-2,2.69.05l.32.1a9.52,9.52,0,0,1,2.77,1.61h.11l.07.09a1.47,1.47,0,0,1,1,.55l.29.13a1.85,1.85,0,0,1,1.2.58l.12,0c.3.57,1.17-.08,1.36.71,2.43.15,4.88-.31,7.29.3.27-.27.53-.55.84-.05.8-.64,1.73-.26,2.6-.37,2.27-.47,4.56-.13,6.84-.24,3.74-.17,7.52,0,11.05-1.68a15.6,15.6,0,0,0,1.77-1.46C319.38,539.45,319.09,538.35,317.74,537.78Z" transform="translate(-90.72 23.45)"/><path class="cls-19" d="M642.18,505.63a83.22,83.22,0,0,1-7.38,6.63,74.06,74.06,0,0,1-8.48,5.9c-5.73,3.43-9,3.89-9.86,4a20.78,20.78,0,0,1-4.52.21,3.57,3.57,0,0,1-1.38-2.44c-.07-2.45,3.82-3.09,8.57-7.5,5.56-5.16,6.3-9.92,6.45-10.88.37-2.25-.13-2.88-2.21-12.17-.77-3.47-1.46-6.56-2.09-10-1.11-6.12-1.06-8.08-2.18-16-.74-5.24-1.3-8.15-1.84-11.33a288.08,288.08,0,0,1-3.21-28.68l25,1.25c.05,2.22.15,5.63.37,9.77.8,15.27,1.9,16.3,1.88,24.82a156.53,156.53,0,0,1-1.7,21.28c-.28,2.23-3,7.52-1.11,12.72.31.83.57,1.25,1.13,2.62A39.22,39.22,0,0,1,642.18,505.63Z" transform="translate(-90.72 23.45)"/><path class="cls-20" d="M653.14,507.09c0,5.46-.28,10-.54,13.46-.37,4.79-.66,6.21-1.72,7.67A10.77,10.77,0,0,1,640,532a11.34,11.34,0,0,1-6.85-5.1c.33-.82.83-2.08,1.4-3.68.23-.65.2-.59.36-1a20.2,20.2,0,0,1,2-4.46c.69-1.07.94-1,1.24-1.83.15-.38.19-.65.62-2.08.07-.24.14-.48.24-.8.87-2.9,1.51-4.87,1.61-5.21,1.74-5.6-1.67-13.87-3.4-26-.43-3-.68-6.36-1.17-13.08s-.7-12-.83-15.28c-.26-6.7-.44-15.67-.18-26.35H654.9c.05,2.22.15,5.62.37,9.77.64,12.08,1.46,15.25,1.77,20.27.05.84.12,2.5.12,4.55,0,4.1-.36,6.44-1.51,16-.77,6.37-.7,6.07-.9,7.36-.89,5.83-1.57,7.34-2,10.77A38.82,38.82,0,0,0,653.14,507.09Z" transform="translate(-90.72 23.45)"/><path class="cls-20" d="M535.6,261.81c.71,3.19-2.22,6.92-5.49,8.16-1.5.56-3,.44-5.94.16a27.75,27.75,0,0,1-8.3-1.64c-3.95-1.59-9.44-5.39-8.79-8.15.3-1.27,2.72-2.12,7.56-3.77s7.23-2.44,9.63-2.2a15.32,15.32,0,0,1,8.17,3.58C534.11,259.31,535.24,260.23,535.6,261.81Z" transform="translate(-90.72 23.45)"/><path class="cls-20" d="M663.7,206.85a7.57,7.57,0,0,1-.5,1.82c-.35,1.21-.24,1.09-.47,1.76a6,6,0,0,1-1.64,2.72c-.7.59-.89.43-1.32.94a1.57,1.57,0,0,0-.35.66,13.08,13.08,0,0,1-2.49,7.67,10,10,0,0,0-2.18,3.11,8.22,8.22,0,0,0,.19,5.8c.86,2.1,1.95,2.38,3.35,4.36a14,14,0,0,1,2.42,6.77c-8.57-.23-17.13-.42-25.74-.66a28.32,28.32,0,0,0,2.85-11.68,23.47,23.47,0,0,0-.16-3.3c-1.13-1.25-2.18-2.69-3.31-4.21a32.37,32.37,0,0,1-4.94-11.83,9.69,9.69,0,0,1-.12-2.46,10,10,0,0,1,.43-2.14c.31-1.32.08-2.29-.51-4.82-1.4-6.08-1.55-7.56-.85-9.07a2.82,2.82,0,0,1,1-1.29c.7-.54,2.26-1.24,6.27.35,7.74,3.08,13.7,10.24,15.3,12.73a21.24,21.24,0,0,0,2.37,2.88c1.6,1.71,2,1.79,2.22,1.71.66-.19,1.13-1.9.7-3.34-.74-2.61-3.82-3.47-3.78-5.26,0-.15,0-.78.35-.89s.67.15.86.31c2.26,1.75,3.43,2.64,3.93,3.42,1.52,2.38,1.21,4.13,2,4.25,1,.15,1.71-2.46,2.88-2.3C663.16,205,663.66,206,663.7,206.85Z" transform="translate(-90.72 23.45)"/><path class="cls-11" d="M530.11,270l5.49-8.16c8.9.27,17.33,3,25.9,5,7.23,1.66,14.49,3.44,21.22,6.74,1.6.79,2.33.39,3.29-1.08,7.83-12,17.56-22.5,26.83-33.37a11.67,11.67,0,0,1,7.38-4.27l15.15-2.4c1.16,1.32.16,2.18-.6,3.18-2.06,2.71-4.52,5.25-6,8.26a91.48,91.48,0,0,0-7.74,58.39c.21,1.11.13,2,1.79,2,8.42.13,8.42.19,10,7.49,3.77-4.66,1-9.65,1.24-14.37.25-.17.63-.29.73-.52q8.82-21.42,17.6-42.85l7.65-2.74c1.13.32,2-.4,3-.74h0a3.11,3.11,0,0,1-1.45,3.14,51.28,51.28,0,0,0-6.07,5c-2,2.06-4.11,4.24-2.93,7.69.84,2.47,2.08,4.06,5.12,3.61-3.89-3.94-3.8-5.06.42-8.41a45.25,45.25,0,0,0,4.65-3.8c2.57-2.68,4.85-5.85,8.81-1.84a1.42,1.42,0,0,0,2-.41c-3.28-4.78.36-13.6,5.89-14.33,4.38,2.05,7.32,5.53,9.82,9.56,5.15,8.32,10.46,16.55,15.68,24.82.67,1.05,1.24,2.16,1.8,3.26,6.3,12.46,5.61,15.22-5.77,23.27a328.18,328.18,0,0,1-28.86,18c-3.07,1.73-4,3.66-3.54,7,.75,5.56,1.94,11,3.23,16.43.69,3,2.61,6.91-2.69,8.29-1.57.41-1.1,2-1,3.23,1,24.07-2.6,47.72-6.14,71.41-.75,5.08-4.68,4-7.51,5.26-3.22-.06-6.45.55-9.65-.17-1.85-1-3.87-.8-5.85-.9l-24.91-7.28c-4.64-1.21-6.2-4.54-7.29-9-5.28-21.45-5.42-43.05-3.44-64.91a121.6,121.6,0,0,1,7.5-31.07c4.43-12.06,3.6-24.48,2.3-36.92-.32-3-.65-6.05-1-9.15-2,.32-2.55,2-3.53,3.08-3,3.35-5.7,7-8.91,10.18-6.76,6.63-13.62,9.7-23.63,4.74M660,328c.8-3.23,1.84-6.83-2.08-8.54-3.48-1.52-6.69-.32-8.86,3-2.46,1.92-3.27,4.82-4.4,7.5-.37.88-.62,2.93.92,2.11,3.16-1.69,5.12.6,7.16,1.67,3.93,2,5.93,1.23,6.7-3C659.56,329.8,659.77,328.9,660,328Zm21.14-55.3c-3.71,11.2-8.35,21.55-11.05,33.7l21.85-15.95c.87-.64,1.08-1.24.33-2.26C688.58,283.22,685,278.19,681.1,272.7Z" transform="translate(-90.72 23.45)"/><path class="cls-21" d="M663,250.52c-1,.34-1.83,1.06-3,.74,4.26-7.7,3.76-12.08-1.79-15.57-1.61-2.2-4.19-3.89-3.86-7.13.54-1.42-.29-3.16,1-4.4,2.92-2.73,3.38-6.51,4.31-10.09l.09-.21c.41-.37.84-.73,1.26-1.1a1.23,1.23,0,0,0,.83-1.46,3.93,3.93,0,0,0,1-2.81c1-1.12,1-2.36-.21-3.11-2.14-1.31-2,2.35-3.83,2-1.37-2.75-2.55-5.58-5.07-7.49-.33-.64-1-1-1.42-.48-.55.66.44.8.77,1.16.43,2.79,4.83,4.44,2.3,8.08l-.15-.08-1.61-1a40.42,40.42,0,0,0-11.13-10.64l-2.76-2.18a2,2,0,0,0-1.78-1.06c-2.22-3.15-5.46-3-8.74-2.7-1.73-4.64,1.32-7.59,4.14-10.14,5.88-5.34,20.7-6.19,26.89-1.93,7.91,5.43,10.78,14.42,7.57,24.3-1,3.22-2.52,6.31-3.8,9.45l-.33,1.12,1.57-.13c12.34-.9,20.15,8.93,16.66,21.1-.63,2.2-1.67,4.29-2.52,6.43-5.54.73-9.18,9.55-5.9,14.33a1.42,1.42,0,0,1-2,.41c-4-4-6.24-.84-8.81,1.84a45.25,45.25,0,0,1-4.65,3.8c-4.22,3.35-4.31,4.47-.42,8.41-3,.45-4.28-1.14-5.12-3.61-1.18-3.45.89-5.63,2.93-7.69a51.28,51.28,0,0,1,6.07-5,3.11,3.11,0,0,0,1.45-3.14,1.64,1.64,0,0,0,.33-.14s0-.16.07-.25Z" transform="translate(-90.72 23.45)"/><path class="cls-16" d="M658.29,235.69c5.55,3.49,6.05,7.87,1.79,15.57L652.43,254c-6.85-.12-14,.7-18.83-6.63-.55,2.88-.94,4.85-1.32,6.82a2.32,2.32,0,0,0-1,1.94,89.75,89.75,0,0,0,.2,29.48c.69,4,.36,8.17,2.67,11.76-.19,4.72,2.53,9.71-1.24,14.37-1.6-7.3-1.6-7.36-10-7.49-1.66,0-1.58-.89-1.79-2a91.48,91.48,0,0,1,7.74-58.39c1.46-3,3.92-5.55,6-8.26.76-1,1.76-1.86.6-3.18,2-1.15,2.74-.69,2.48,1.66-.49,4.54,2.28,6.43,6.21,7.18a26.25,26.25,0,0,0,9.72-.17C656.63,240.56,658.65,239,658.29,235.69Z" transform="translate(-90.72 23.45)"/><path class="cls-1" d="M628.5,526.21c-6.29,1.66-11,2.94-14.94,4.06a24,24,0,0,1-6.8.94c-2.35,0-6.56-.06-7.87-2.49-.85-1.56-.14-3.45.13-4.17,2.49-6.65,13.65-8.24,15.33-8.46-2.48,1.41-4.07,3.11-3.75,4.28.39,1.47,3.67,1.91,5.86,1.81,3.07-.14,6.16-1.44,18.69-11.7,2.46-2,5.11-4.23,5.68-3.73.35.3-.18,1.49-.71,2.5l-.54,1.78-2.71,5.83-3,6.45C631.59,524.63,630.6,525.12,628.5,526.21Z" transform="translate(-90.72 23.45)"/><path class="cls-1" d="M639.44,511.33c.19.08-1,4.21-3.05,8.63-1.09,2.31-1.85,3.47-1.86,5.49,0,.93,0,3.63,2,5.06,2.37,1.69,5.46.13,5.59.06A6.72,6.72,0,0,0,644.7,528c5.06-8.22,6.48-15.93,7.81-18.43a4.9,4.9,0,0,0,.63-2.43A4.29,4.29,0,0,0,653,506a35,35,0,0,1,.94,8.22c-.07,11.36-5.81,23.16-12.86,25.46a10,10,0,0,1-6.12.2,6.61,6.61,0,0,1-3.77-2.55,6,6,0,0,1-1-3.5,14.49,14.49,0,0,1,.54-2.36c.52-2.13.49-2.24.71-3a19.5,19.5,0,0,1,1.55-3.68C634.56,522,639.14,511.19,639.44,511.33Z" transform="translate(-90.72 23.45)"/><path class="cls-22" d="M632.28,254.19c.38-2,.77-3.94,1.32-6.82,4.84,7.33,12,6.51,18.83,6.63q-8.79,21.42-17.6,42.85c-.1.23-.48.35-.73.52-2.31-3.59-2-7.79-2.67-11.75Q631.85,269.91,632.28,254.19Z" transform="translate(-90.72 23.45)"/><path class="cls-20" d="M660,328c-.2.89-.39,1.83-.59,2.72-.74,4.25-2.76,5.06-6.69,3-2-1.09-4-3.39-7.17-1.67-1.52.81-1.28-1.25-.89-2.11,1.13-2.68,1.94-5.6,4.4-7.51,2.18-3.31,5.37-4.52,8.83-3C661.79,321.18,660.74,324.76,660,328Z" transform="translate(-90.72 23.45)"/><path class="cls-23" d="M663,250.52l.41-.38c0,.09,0,.21-.07.25a1.64,1.64,0,0,1-.33.14Z" transform="translate(-90.72 23.45)"/><path class="cls-10" d="M632.28,254.19q-.42,15.72-.85,31.43a89.81,89.81,0,0,1-.2-29.49A2.32,2.32,0,0,1,632.28,254.19Z" transform="translate(-90.72 23.45)"/><path class="cls-24" d="M363,472c-1.73-1.19-3.27-3.4-5.65-2.25-1.28.62-.88-.24-.84-.54.44-3.8-.16-8.23,3.77-10.48,4.12-2.36,7.61-5.06,13.7-3.54,10.79,2.69,20.56,8.95,32,9.07,3.32,0,6.13,1.46,6.26,4.81s-2.7,5.71-5.79,6.21c-4.12.66-7.46,2.67-11.13,4.27-5.8,2.52-12.1,3.94-17.71-1a4.73,4.73,0,0,0-3.63-.94,1,1,0,0,0-.66-.15c-.13-4.21-3.25-3.69-6-3.8C366.52,471.44,364.73,471.75,363,472Z" transform="translate(-90.72 23.45)"/><path class="cls-6" d="M373.29,477.52a1,1,0,0,1,.66.15c-2.06,2.9-4.87,3.64-8.15,2.61a8.22,8.22,0,0,0-5.7.22c-2-3-3.92-.26-5.78.13-2.05.43-2,2.32-1.81,4,.61,4.87,1.93,9.39,5.38,13.21,4.77,5.29,9.35,10.72,15.51,14.5a6.27,6.27,0,0,1,3.4,5.52c-12.48-.17-25-.2-37.17,3-1.06.28-2.3.82-3.05-.5-.67-1.17,0-2.27.68-3.14a7,7,0,0,1,2.5-2.22,22.08,22.08,0,0,0,10.48-9.45c2.25-3.72,2.1-6.48.51-9.85-.75-1.59-2.63-3-2.06-4.8,2.11-6.39-2.09-11-4.33-16.06-1.53-3.5-4.36-5.37-8.27-5.92-5.3-.75-10.69-1.59-13.86-6.81.27-.6.54-1.21.82-1.81.26,0,.53,0,.8,0,.93,2.82,3.67,3.52,5.81,4.86,1.67,1.05,3.58,1.71,5.51.62s.27-2.93.53-4.39c.17-.94.22-1.9.32-2.86l4.7-.37c.34,5.5,4.48,9.38,6.3,14.28.63,1.69,3.29,4.2,5.37.4,2.95,3.32,6.37.65,9.58.76,1,1.44-3,6.62,3.14,4.13C367.89,479.53,370.58,478.12,373.29,477.52Z" transform="translate(-90.72 23.45)"/><path class="cls-5" d="M340.72,458.14l-4.7.37c-3-.25-6.09-.51-9.14-.72-1.75-.11-2.46,1.13-3,2.49a7,7,0,0,1-.8,0c-6.05-.94-11.95-2.11-17.39-5.35-3.13-1.87-4.48-4-3.94-7.43.52-3.3,3-3.8,5.72-4.15,6.1-.81,12.76-.57,15.51-8,.14-.38.74-.59,1.13-.88l1.9.2c2.21,2.83,5.47,3.81,8.68,4.87,2.77.91,5.57,1.71,8.3,2.71,3.5,1.29,3.52,3.33,1.1,5.84-1,1-3.85,1.68-1.08,3.82C340,453.17,340.9,455.85,340.72,458.14Z" transform="translate(-90.72 23.45)"/><path class="cls-24" d="M324.08,434.46c-.39.29-1,.5-1.13.88-2.75,7.4-9.41,7.16-15.51,8-2.69.35-5.2.85-5.72,4.15-.54,3.46.81,5.56,3.94,7.43,5.44,3.24,11.34,4.41,17.39,5.35-.28.61-.55,1.22-.82,1.82l-9.39-.42c-3.79-1.94-8-2.21-12.08-3.24l-8.86-4.19h.1c-2.86-6.23,1.54-8.72,5.82-11.27,7.65,1.91,12-3.8,17.41-7.34C317.87,433.85,320.75,431.82,324.08,434.46Z" transform="translate(-90.72 23.45)"/><path class="cls-24" d="M351,438.43c-3-4.9-7.31-1.75-11.09-1.92-1.67-.08-3.78,1-4.67-1.31-.7-1.83.11-3.49,1.48-4.84s2.9-3.05,4.51-4.38c1.88-1.54,12.8-.71,14.14,1.14,1.54,2.1,1.45,4.25-.81,5.95-1.86,1.39-3.61,2.82-3.65,5.42Z" transform="translate(-90.72 23.45)"/><path class="cls-25" d="M376.8,517.82a6.27,6.27,0,0,0-3.4-5.52c-6.16-3.78-10.74-9.21-15.51-14.5-3.45-3.82-4.77-8.34-5.38-13.21-.2-1.64-.24-3.53,1.81-4,1.86-.39,3.82-3.17,5.78-.13l0,0a3.42,3.42,0,0,0-2.8,1.1c-1.14,12.63,7.77,19.42,15.67,26.73a61.61,61.61,0,0,0,6.28,4.5,3.08,3.08,0,0,1,1.22,3.84C379.75,518.51,378.29,518.36,376.8,517.82Z" transform="translate(-90.72 23.45)"/><path class="cls-6" d="M348.41,457.16c-1.68-1.8-7.21.39-5.31-5.13,4.38.67,8.65-.1,12.9-1a6.92,6.92,0,0,0,4.29-.65,1.79,1.79,0,0,1,1.82.84l-5.29,3.86,3.54.32C356.53,457,352.35,456.27,348.41,457.16Z" transform="translate(-90.72 23.45)"/><path class="cls-25" d="M351,438.43l-.09.06c2.49.06,4.24-1.19,5.4-3.55,1,1.69-.17,2.84-.05,4.08l.07.08-2.4,1.38c-1.7,1.17-.58,2.74-.6,4.15,0,.6,0,1.2,0,1.8-3.16-.29-4.13-2.91-5-5.22C347.55,439.26,350.15,439.48,351,438.43Z" transform="translate(-90.72 23.45)"/><path class="cls-25" d="M365.11,477.71c-6.12,2.49-2.17-2.69-3.14-4.13l1-1.55c1.79-.28,3.58-.59,4.37,1.7Z" transform="translate(-90.72 23.45)"/><path class="cls-25" d="M360.36,455.37l-3.54-.32,5.29-3.86,2.89,1.29Z" transform="translate(-90.72 23.45)"/><path class="cls-26" d="M334.22,513.68c3-4,6.66-5.56,11.78-4.77,8.2,1.25,16.47.67,24.69-.2,6.21-.66,9.6,3.26,11.67,8.09,1.93,4.51,3.07,9.52-2,13.26-2-1.44-4.2-1.2-6.25-.53-4.2,1.36-8.06.29-12-1.36,5.44.57,10.62-2,16.09-1,1.68.32,3.27.18,3.36-2.09.06-1.34.29-3.57-1.32-3.37-2.74.32-4.86-2.63-7.87-.75-3.33,2.08-4.12-.75-4.94-3.32,4,3.13,7.31-3.34,11.12,0-3.62-5.51-13.65-8.45-19.5-6.27-1.82.67-2.15,1.83-1.09,3.11.94,1.13,2.37,1.87,3.91,3-4.41,2-5.6,5.13-4.64,9.52.67,3.1-1.26,5.09-3.85,6.64-2,1.2-3.35.62-4.6-.93-.84-1.06-1.46-2.62-3.2-1.58a3.86,3.86,0,0,0-1.7,3.59c.06,2.07,1.59,2.54,3.28,2.61,2.37.11,4.83-.09,6.61,1.91,3.37,3.82,7.81,4.15,12.44,3.92-5.46,1.07-11,.17-16.43.36-2,.06-3.25-1.15-4.57-2.38-2.87-2.68-5.74-5.38-8.73-7.93-4.67-4-6.37-8.81-4.67-14.77,4.64.65,9.33,2,13.89,1.67,2.87-.22,8.26,2.3,8.61-4.1-3,1.23-5-2.76-7.54-1.75C342.41,516,338.43,513.15,334.22,513.68Z" transform="translate(-90.72 23.45)"/><path class="cls-27" d="M366.26,543.17c-4.63.23-9.07-.1-12.44-3.92-1.78-2-4.24-1.8-6.61-1.91-1.69-.07-3.22-.54-3.28-2.61a3.86,3.86,0,0,1,1.7-3.59c1.74-1,2.36.52,3.2,1.58,1.25,1.55,2.62,2.13,4.6.93,2.59-1.55,4.52-3.54,3.85-6.64-1-4.39.23-7.56,4.64-9.52-1.54-1.16-3-1.9-3.91-3-1.06-1.28-.73-2.44,1.09-3.11,5.85-2.18,15.88.76,19.5,6.27-3.81-3.33-7.14,3.14-11.12,0,.82,2.57,1.61,5.4,4.94,3.32,3-1.88,5.13,1.07,7.87.75,1.61-.2,1.38,2,1.32,3.37-.09,2.27-1.68,2.41-3.36,2.09-5.47-1-10.65,1.58-16.09,1,3.9,1.65,7.76,2.72,12,1.36,2.05-.67,4.28-.91,6.25.53l-1.16,1.39a6.77,6.77,0,0,0-5.86,5.39.74.74,0,0,1-.6.41l-1.88,1.83a.74.74,0,0,1-.55.49,2.68,2.68,0,0,0-1.88,2,.62.62,0,0,1-.41.5.91.91,0,0,0-.63.63Zm-1.11-22.71a7.18,7.18,0,0,0-1.47-.32,1.85,1.85,0,0,0-.3.87,8.92,8.92,0,0,0,1.38.58Z" transform="translate(-90.72 23.45)"/><path class="cls-28" d="M334.22,513.68c4.21-.53,8.19,2.31,12.6.59,2.58-1,4.57,3,7.54,1.76h0c-.34,6.4-5.73,3.88-8.6,4.1-4.56.36-9.25-1-13.89-1.67C331.74,516.41,332,514.57,334.22,513.68Z" transform="translate(-90.72 23.45)"/><path class="cls-24" d="M642.33,479.19c1.73-1.19,3.27-3.4,5.65-2.25,1.27.61.88-.24.84-.54-.44-3.8.15-8.23-3.78-10.49-4.11-2.36-7.6-5.05-13.69-3.53-10.79,2.69-20.57,8.95-32,9.07-3.32,0-6.13,1.46-6.26,4.81s2.69,5.71,5.79,6.21c4.12.66,7.46,2.67,11.13,4.27,5.8,2.52,12.1,3.94,17.71-1a4.78,4.78,0,0,1,3.63-.95,1,1,0,0,1,.66-.14c.13-4.21,3.25-3.69,6-3.8C638.76,478.6,640.55,478.91,642.33,479.19Z" transform="translate(-90.72 23.45)"/><path class="cls-6" d="M632,484.67a1.08,1.08,0,0,0-.66.15c2.06,2.91,4.87,3.65,8.14,2.62a8.24,8.24,0,0,1,5.71.22c2-3,3.91-.26,5.78.13,2,.43,2,2.31,1.8,4-.6,4.87-1.93,9.39-5.37,13.21-4.77,5.29-9.35,10.72-15.51,14.49a6.3,6.3,0,0,0-3.4,5.53c12.48-.17,24.95-.2,37.17,3,1.06.28,2.3.82,3.05-.51.67-1.16,0-2.26-.68-3.13a7.18,7.18,0,0,0-2.5-2.23A22,22,0,0,1,655,512.66c-2.26-3.72-2.1-6.48-.51-9.85.75-1.59,2.63-3.05,2.05-4.8-2.1-6.39,2.1-11,4.34-16.06,1.53-3.5,4.36-5.37,8.26-5.92,5.31-.76,10.7-1.59,13.87-6.81-.27-.6-.55-1.21-.82-1.82-.27,0-.53,0-.8,0-.93,2.82-3.67,3.52-5.81,4.86-1.67,1.05-3.58,1.71-5.51.62s-.27-2.93-.53-4.39c-.17-.94-.22-1.91-.32-2.86l-4.7-.37c-.35,5.5-4.48,9.38-6.31,14.28-.62,1.68-3.28,4.2-5.36.4-2.95,3.32-6.37.65-9.58.76-1,1.43,3,6.61-3.15,4.13C637.39,486.69,634.7,485.27,632,484.67Z" transform="translate(-90.72 23.45)"/><path class="cls-5" d="M664.56,465.3l4.69.36c3-.24,6.1-.51,9.15-.71,1.75-.12,2.46,1.13,3,2.49.27,0,.53,0,.8,0,6-.94,11.95-2.11,17.39-5.35,3.13-1.87,4.48-4,3.93-7.43-.51-3.3-3-3.8-5.71-4.15-6.1-.81-12.76-.58-15.51-8-.14-.38-.75-.59-1.14-.88l-1.89.19c-2.21,2.84-5.47,3.82-8.68,4.87-2.77.92-5.57,1.72-8.3,2.72-3.5,1.29-3.52,3.32-1.1,5.84,1,1,3.85,1.68,1.08,3.82C665.28,460.33,664.38,463,664.56,465.3Z" transform="translate(-90.72 23.45)"/><path class="cls-24" d="M681.19,441.62c.39.29,1,.5,1.14.88,2.75,7.39,9.41,7.16,15.51,8,2.69.35,5.2.85,5.71,4.15.55,3.46-.8,5.56-3.93,7.43-5.44,3.24-11.34,4.41-17.39,5.35.27.61.55,1.22.82,1.82l9.39-.42c3.79-1.94,8-2.22,12.07-3.24l8.87-4.19h-.1c2.86-6.24-1.54-8.73-5.82-11.27-7.66,1.91-12-3.8-17.41-7.34C687.4,441,684.52,439,681.19,441.62Z" transform="translate(-90.72 23.45)"/><path class="cls-24" d="M654.33,445.59c3-4.9,7.31-1.75,11.09-1.92,1.67-.08,3.78,1,4.66-1.32.71-1.83-.11-3.48-1.47-4.83s-2.9-3-4.51-4.38c-1.88-1.55-12.8-.71-14.14,1.13-1.54,2.1-1.45,4.26.81,6,1.85,1.39,3.61,2.82,3.65,5.42Z" transform="translate(-90.72 23.45)"/><path class="cls-25" d="M628.48,525a6.3,6.3,0,0,1,3.4-5.53c6.16-3.77,10.74-9.2,15.51-14.49,3.44-3.82,4.77-8.34,5.37-13.21.21-1.65.25-3.53-1.8-4-1.87-.39-3.82-3.17-5.78-.13l0,0a3.39,3.39,0,0,1,2.8,1.09c1.13,12.64-7.77,19.42-15.67,26.74a64.39,64.39,0,0,1-6.28,4.5,3.08,3.08,0,0,0-1.22,3.84C625.53,525.67,627,525.52,628.48,525Z" transform="translate(-90.72 23.45)"/><path class="cls-6" d="M656.87,464.32c1.68-1.8,7.21.38,5.3-5.13-4.38.67-8.64-.1-12.89-1a6.84,6.84,0,0,1-4.29-.66,1.81,1.81,0,0,0-1.82.85l5.29,3.86-3.54.32C648.75,464.15,652.93,463.43,656.87,464.32Z" transform="translate(-90.72 23.45)"/><path class="cls-25" d="M654.33,445.59l.09.06c-2.49.06-4.24-1.19-5.41-3.55-1,1.69.18,2.84,0,4.07l-.06.09,2.4,1.38c1.69,1.17.58,2.74.6,4.15l0,1.8c3.17-.29,4.14-2.91,5-5.22C657.72,446.42,655.12,446.64,654.33,445.59Z" transform="translate(-90.72 23.45)"/><path class="cls-25" d="M640.16,484.87c6.12,2.48,2.18-2.7,3.15-4.13l-1-1.55c-1.79-.28-3.58-.59-4.37,1.69Z" transform="translate(-90.72 23.45)"/><path class="cls-25" d="M644.92,462.53l3.54-.32-5.29-3.86-2.89,1.29Z" transform="translate(-90.72 23.45)"/><path class="cls-26" d="M671.06,520.84c-3-4-6.67-5.56-11.78-4.78-8.2,1.26-16.47.68-24.7-.19-6.2-.66-9.59,3.26-11.66,8.09-1.93,4.51-3.07,9.51,2,13.26,2-1.45,4.2-1.2,6.25-.53,4.2,1.35,8.06.29,12-1.36-5.43.57-10.62-2-16.08-1-1.69.32-3.27.18-3.36-2.1-.06-1.33-.29-3.56,1.32-3.36,2.74.32,4.86-2.63,7.87-.75,3.32,2.08,4.12-.75,4.93-3.33-4,3.14-7.3-3.33-11.11,0,3.62-5.51,13.65-8.45,19.5-6.27,1.82.67,2.15,1.83,1.08,3.11s-2.36,1.86-3.91,3c4.41,2,5.61,5.12,4.65,9.52-.67,3.09,1.26,5.08,3.84,6.64,2,1.2,3.36.62,4.6-.93.85-1.06,1.47-2.62,3.21-1.58a3.86,3.86,0,0,1,1.7,3.59c-.07,2.07-1.59,2.53-3.28,2.61-2.37.1-4.83-.09-6.61,1.91-3.38,3.81-7.81,4.14-12.44,3.92,5.45,1.07,11,.17,16.43.36,2,.06,3.25-1.15,4.57-2.38,2.87-2.68,5.74-5.38,8.73-7.93,4.67-4,6.37-8.81,4.66-14.77-4.63.65-9.33,2-13.88,1.67-2.87-.22-8.26,2.3-8.61-4.1,3,1.22,5-2.76,7.53-1.75C662.87,523.15,666.84,520.31,671.06,520.84Z" transform="translate(-90.72 23.45)"/><path class="cls-27" d="M639,550.33c4.63.22,9.06-.11,12.44-3.92,1.78-2,4.24-1.81,6.61-1.91,1.69-.08,3.21-.54,3.28-2.61a3.86,3.86,0,0,0-1.7-3.59c-1.74-1-2.36.52-3.21,1.58-1.24,1.55-2.61,2.13-4.6.93-2.58-1.56-4.51-3.55-3.84-6.64,1-4.4-.24-7.56-4.65-9.52,1.55-1.17,3-1.9,3.91-3s.74-2.44-1.08-3.11c-5.85-2.18-15.88.76-19.5,6.27,3.81-3.33,7.14,3.14,11.11,0-.81,2.58-1.61,5.41-4.93,3.33-3-1.88-5.13,1.07-7.87.75-1.61-.2-1.38,2-1.32,3.36.09,2.28,1.67,2.42,3.36,2.1,5.46-1,10.65,1.58,16.08,1-3.89,1.65-7.75,2.71-12,1.36-2-.67-4.28-.92-6.25.53l1.16,1.39a6.75,6.75,0,0,1,5.86,5.39.73.73,0,0,0,.59.41l1.88,1.83a.77.77,0,0,0,.56.49,2.68,2.68,0,0,1,1.88,2,.58.58,0,0,0,.41.49,1,1,0,0,1,.63.64Zm1.11-22.71a6.61,6.61,0,0,1,1.46-.32c.1,0,.37.84.31.87a8.72,8.72,0,0,1-1.38.57Z" transform="translate(-90.72 23.45)"/><path class="cls-28" d="M671.06,520.84c-4.22-.53-8.19,2.31-12.61.59-2.58-1-4.56,3-7.53,1.76h0c.34,6.4,5.73,3.88,8.6,4.1,4.55.36,9.25-1,13.88-1.67C673.54,523.57,673.28,521.72,671.06,520.84Z" transform="translate(-90.72 23.45)"/></svg>